<svg width="59" height="60" viewBox="0 0 59 60" fill="none" xmlns="http://www.w3.org/2000/svg">
<path d="M47.041 10.7609V17.7394H43.4241V17.1428C43.4241 13.7136 43.4241 10.2843 43.4241 6.85844C43.4241 5.3721 44.1051 4.66893 45.5506 4.66893C48.8558 4.66893 52.1611 4.66893 55.4632 4.66893H56.0575V8.4081H50.009C56.0607 14.8267 59.0704 22.395 58.7364 31.2597C58.4634 38.4981 55.9193 44.8533 51.2039 50.2055C41.9819 60.6698 27.0968 63.0127 15.3211 55.9142C3.59362 48.8391 -1.85096 34.2357 2.32161 20.822C6.66763 6.83844 19.0536 -0.173334 29.84 -3.87137e-05V3.68581C22.3364 3.8791 15.9732 6.7318 10.9494 12.5438C6.98563 17.1328 4.86241 22.5683 4.58616 28.7203C4.00798 41.6274 12.366 52.6116 23.8847 55.4743C35.7407 58.4203 47.7766 52.3717 52.8453 40.9342C57.7952 29.7634 54.3422 17.5561 47.041 10.7576V10.7609ZM46.5977 29.9933C46.6041 20.4488 39.1199 12.6405 29.946 12.6238C20.6918 12.6072 13.1529 20.3854 13.1497 29.9566C13.1465 39.5245 20.6372 47.3161 29.8561 47.3261C39.0749 47.3361 46.5913 39.5512 46.5977 29.9933ZM16.7634 29.97C16.7634 22.475 22.648 16.373 29.8721 16.373C37.0898 16.373 42.9776 22.485 42.9808 29.9766C42.9808 37.465 37.0898 43.577 29.8689 43.5736C22.648 43.5736 16.7634 37.465 16.7634 29.97ZM32.7919 40.2777C34.9409 40.2344 36.6979 38.7547 37.0031 36.5552C37.1701 35.3455 37.093 34.0991 37.0962 32.8693C37.1059 30 35.2717 28.1071 32.5093 28.1071C30.7554 28.1071 28.9984 28.1104 27.2446 28.1071C26.4769 28.1071 26.2585 27.8704 26.2552 27.0906C26.2552 26.2175 26.2552 25.341 26.2552 24.4679C26.2552 23.6347 26.4576 23.4248 27.2574 23.4248C30.0263 23.4248 32.7984 23.4248 35.5672 23.4248H36.1486V19.6656H31.6741V17.786H28.0444V19.6789C27.6108 19.6789 27.2542 19.6723 26.8945 19.6789C24.8066 19.7256 23.0078 21.2019 22.7508 23.3448C22.5645 24.8911 22.5484 26.4941 22.7219 28.0404C22.9853 30.3799 24.7905 31.8329 27.1707 31.8596C28.9085 31.8796 30.6462 31.8629 32.384 31.8629C33.3059 31.8629 33.4793 32.0395 33.4793 32.9726C33.4793 33.8125 33.4793 34.6523 33.4793 35.4888C33.4793 36.3186 33.2738 36.5352 32.4772 36.5352C29.7083 36.5352 26.9362 36.5352 24.1674 36.5352H23.586V40.2944H28.0605V42.1439H31.6709V40.2844C32.1045 40.2844 32.4483 40.291 32.7887 40.2844L32.7919 40.2777Z" fill="#AE0C79"/>
</svg>
