<svg width="59" height="54" viewBox="0 0 59 54" fill="none" xmlns="http://www.w3.org/2000/svg">
<path d="M15.917 36.3855C15.744 36.5082 15.5883 36.6069 15.4412 36.7206C13.4312 38.2675 11.4154 39.8083 9.4112 41.3671C8.92096 41.75 8.42206 41.9565 7.83666 41.6364C7.27432 41.3282 7.15608 40.8046 7.15897 40.1913C7.1705 37.4148 7.16474 34.6412 7.16474 31.8647C7.16474 31.6523 7.16474 31.4399 7.16474 31.2334C6.58798 31.1168 6.06025 31.0509 5.5527 30.9013C2.8333 30.0995 0.944422 27.5294 0.938655 24.5914C0.92712 18.5896 0.921352 12.5848 0.938655 6.58298C0.947306 2.97173 3.75611 0.0246834 7.23395 0.0157076C17.2897 -0.00523587 27.3454 -0.00523587 37.4012 0.0157076C40.879 0.0216914 43.6676 2.94779 43.7166 6.56802C43.7368 8.16272 43.7195 9.75741 43.7195 11.3521C43.7195 11.5645 43.7195 11.777 43.7195 12.0642C43.9646 12.0642 44.1665 12.0642 44.3684 12.0642C46.9869 12.0642 49.6053 12.0642 52.2238 12.0642C55.9439 12.0672 58.7498 14.9604 58.7527 18.814C58.7584 24.6213 58.7527 30.4286 58.7527 36.2359C58.7527 40.0506 56.5437 42.6865 52.9073 43.2101C52.7977 43.2251 52.6852 43.246 52.5208 43.2729C52.5208 43.4943 52.5208 43.7068 52.5208 43.9192C52.5208 46.6957 52.5122 49.4692 52.5266 52.2457C52.5295 52.886 52.3911 53.4215 51.7999 53.7207C51.2318 54.008 50.7502 53.7925 50.2744 53.4275C46.0179 50.1334 41.7586 46.8453 37.4848 43.5721C37.2195 43.3687 36.8388 43.237 36.5101 43.237C31.9566 43.2161 27.4031 43.1503 22.8496 43.246C18.9133 43.3298 16.0006 40.3319 15.9631 36.592C15.9631 36.5411 15.9372 36.4873 15.9112 36.3855H15.917ZM49.9946 49.8791V49.2179C49.9946 47.0517 49.9946 44.8856 49.9946 42.7224C49.9946 40.8435 50.2369 40.5952 52.0681 40.5892C54.6087 40.5802 56.1976 38.9466 56.1976 36.3197C56.2034 30.5333 56.2034 24.744 56.1976 18.9576C56.1976 16.3606 54.6058 14.724 52.1027 14.724C42.2748 14.724 32.444 14.724 22.616 14.724C20.11 14.724 18.5384 16.3606 18.5355 18.9666C18.5326 24.7529 18.5326 30.5423 18.5355 36.3287C18.5355 38.9317 20.11 40.5503 22.6304 40.5503C27.4492 40.5503 32.2709 40.5383 37.0897 40.5712C37.5627 40.5742 38.1106 40.7627 38.4941 41.0529C42.1508 43.8324 45.7785 46.6508 49.415 49.4572C49.5765 49.5829 49.7437 49.6966 49.9918 49.8761L49.9946 49.8791ZM41.127 12.0642C41.1385 11.8099 41.153 11.6154 41.153 11.4239C41.153 9.92795 41.1558 8.43199 41.153 6.93603C41.1472 4.27621 39.5698 2.64561 36.9917 2.64561C27.2243 2.64561 17.4541 2.64561 7.6867 2.64561C5.04804 2.64561 3.4908 4.27322 3.4908 7.02578C3.4908 12.7314 3.4908 18.44 3.4908 24.1456C3.4908 24.3999 3.49368 24.6572 3.51675 24.9115C3.66671 26.593 4.7539 27.9693 6.33709 28.3582C6.93403 28.5048 7.57712 28.4869 8.19713 28.5048C9.2151 28.5377 9.69093 29.0134 9.69381 30.0696C9.69669 32.4302 9.69381 34.7938 9.69381 37.1545C9.69381 37.3429 9.69381 37.5314 9.69381 37.8187C9.89567 37.678 10.0168 37.6003 10.1321 37.5105C11.9143 36.1372 13.685 34.7519 15.4816 33.4026C15.868 33.1124 15.9805 32.8042 15.9776 32.3285C15.9603 27.8406 15.9631 23.3557 15.9689 18.8678C15.9718 14.9394 18.7633 12.0612 22.5584 12.0612C28.5134 12.0612 34.4712 12.0612 40.4263 12.0612H41.1241L41.127 12.0642Z" fill="#AE0C79"/>
</svg>
