<svg width="60" height="60" viewBox="0 0 60 60" fill="none" xmlns="http://www.w3.org/2000/svg">
<path d="M3.43998 56.5567H4.28332C22.1 56.5567 39.9166 56.5567 57.7333 56.5567C58.03 56.5567 58.3333 56.5567 58.6233 56.6133C59.46 56.7767 60.0266 57.5067 59.9967 58.34C59.9666 59.1867 59.3066 59.8933 58.45 59.9833C58.2467 60.0033 58.04 59.9967 57.8333 59.9967C39.27 59.9967 20.7066 59.9967 2.14332 59.9967C0.609982 59.9967 -1.81296e-05 59.3933 -1.81296e-05 57.8733C-1.81296e-05 39.2933 -1.81296e-05 20.7133 -1.81296e-05 2.12999C-1.81296e-05 1.88665 -0.0133515 1.63999 0.0299819 1.40332C0.176649 0.603321 0.879982 0.0133211 1.68332 -1.21966e-05C2.51998 -0.0166789 3.22998 0.556654 3.38665 1.39999C3.43665 1.67332 3.43665 1.95665 3.43665 2.23332C3.43665 20.05 3.43665 37.8667 3.43665 55.6833V56.5533L3.43998 56.5567ZM49.32 41.49C49.1933 41.33 49.08 41.1533 48.9366 41.01C44.9566 37.0233 40.9667 33.0467 37.0033 29.0467C36.3933 28.4333 35.7566 28.1433 34.8833 28.1567C32.03 28.1967 29.1767 28.15 26.3233 28.1867C25.6467 28.1967 25.2033 27.99 24.7533 27.4833C19.9 22.04 15.0233 16.6167 10.1466 11.1933C9.40332 10.3667 8.36332 10.3 7.62332 10.99C6.89332 11.6733 6.87998 12.6733 7.60665 13.4833C12.7866 19.26 17.9733 25.03 23.1467 30.8133C23.6333 31.3567 24.1833 31.5933 24.91 31.5867C27.9867 31.5633 31.0633 31.5833 34.1433 31.57C34.5 31.57 34.7633 31.6567 35.0266 31.92C38.8967 35.8067 42.7766 39.68 46.6533 43.56C46.7633 43.67 46.8566 43.7933 47.02 43.9867C45.9866 43.9867 45.06 43.9767 44.13 43.99C43.38 44.0033 42.79 44.4267 42.5367 45.1C42.0933 46.2733 42.94 47.4067 44.3033 47.4167C46.54 47.4333 48.78 47.43 51.0166 47.4167C52.26 47.41 52.9333 46.7067 52.9366 45.4467C52.94 43.2467 52.94 41.0433 52.9366 38.8433C52.9366 37.6833 52.2433 36.92 51.2166 36.92C50.1866 36.92 49.5 37.68 49.4933 38.84C49.49 39.6933 49.4933 40.5467 49.4933 41.3967L49.3233 41.4833L49.32 41.49Z" fill="#E019A5"/>
</svg>
