<svg width="60" height="61" viewBox="0 0 60 61" fill="none" xmlns="http://www.w3.org/2000/svg">
<path d="M29.9767 60.127C13.4217 60.107 -0.0266833 46.6285 3.97569e-05 30.0802C0.0267628 13.4952 13.542 -0.0366696 30.0401 7.46544e-05C46.6652 0.0368189 60.0468 13.4819 60.0034 30.0969C59.96 46.6552 46.4715 60.1437 29.98 60.127H29.9767ZM56.8734 30.0736C56.8868 15.2356 44.9382 3.27031 30.0368 3.20016C15.2456 3.13002 3.09324 15.2356 3.08322 30.0435C3.07319 44.9082 15.142 56.9804 30.0067 56.9737C44.8848 56.9704 56.8601 44.9784 56.8734 30.0736ZM44.2334 42.9107C42.8305 37.9068 39.764 34.4628 34.6899 33.0265C31.5934 32.1513 28.4468 32.1747 25.3135 32.9196C22.9652 33.4774 20.8875 34.5564 19.1538 36.2533C16.8757 38.488 15.7433 41.2872 15.2589 44.3804C15.1086 45.3291 15.0719 46.2945 14.9817 47.2933C24.9961 47.3634 34.8703 47.4302 44.8414 47.5004C44.8514 45.897 44.6476 44.3871 44.2334 42.9107ZM28.3165 19.8954C28.3165 21.1447 28.3699 22.2938 28.3065 23.4362C28.1695 25.9448 26.8 27.7754 24.8959 29.2552C21.0378 32.2515 15.937 32.482 12.1924 29.803C9.55688 27.919 8.29422 25.3068 7.92343 22.0934C7.73637 20.4766 8.18398 19.0035 8.19401 17.3834C14.9683 18.2286 21.6591 19.0637 28.3198 19.8954H28.3165ZM11.2404 22.0065C11.1636 24.3014 12.9875 27.8555 17.2264 28.4167C20.4365 28.8443 23.9873 26.5862 24.5619 23.6734C23.6166 23.5531 22.6746 23.4195 21.7292 23.3293C21.5856 23.316 21.3618 23.4563 21.2783 23.5899C20.3797 25.0229 19.0837 25.7411 17.4135 25.544C15.7199 25.3436 14.6209 24.3281 14.0497 22.718C13.9896 22.5443 13.7591 22.3406 13.582 22.3105C12.8204 22.1802 12.0488 22.1067 11.2404 22.0065ZM31.3395 19.9322C38.0704 19.0937 44.7612 18.2586 51.5255 17.4135C51.6457 18.3221 51.7593 19.1806 51.8729 20.039C51.8796 20.0992 51.8729 20.1593 51.8896 20.2161C52.1936 21.4053 51.6858 22.5243 51.4687 23.6366C51.2516 24.759 50.7806 25.8914 50.1693 26.8635C49.5446 27.8522 48.7129 28.7708 47.7943 29.4957C46.8924 30.2038 45.8134 30.7817 44.7211 31.1325C43.6088 31.4899 42.3829 31.6502 41.2104 31.6302C36.1664 31.5467 31.9375 27.448 31.5834 22.4241C31.5266 21.6157 31.4264 20.8107 31.3395 19.9322ZM35.1509 23.7034C35.5284 26.4793 39.2496 28.8643 42.4597 28.4134C45.8669 27.9357 48.8298 24.7891 48.3989 22.05C47.6339 22.1468 46.869 22.2704 46.1007 22.3306C45.6898 22.3606 45.4927 22.5076 45.3257 22.8951C44.6877 24.3916 43.572 25.3636 41.9319 25.5473C40.3051 25.7311 39.0491 25.0262 38.1339 23.6767C38.037 23.5364 37.7932 23.3995 37.6295 23.4128C36.8011 23.483 35.976 23.5999 35.1509 23.7001V23.7034Z" fill="#E019A5"/>
</svg>
