<svg width="60" height="62" viewBox="0 0 60 62" fill="none" xmlns="http://www.w3.org/2000/svg">
<path d="M19.5838 31.3253C19.3894 31.6118 19.195 31.8983 19.0039 32.1849C17.4586 34.5045 15.9134 36.8242 14.3681 39.1438C13.7711 40.0375 13.297 40.1194 12.4441 39.4781C10.0426 37.677 7.64456 35.8656 5.22941 34.0849C4.95651 33.8837 4.57105 33.795 4.22651 33.7438C3.82399 33.6858 3.40782 33.737 2.99847 33.7233C1.32015 33.6722 0.00341784 32.3282 6.61298e-06 30.6737C-0.00340461 29.0193 1.31333 27.648 2.98483 27.6138C4.34932 27.5866 5.71722 27.5831 7.07829 27.6241C7.39554 27.6343 7.75713 27.8015 8.01638 27.9993C9.35699 29.0329 10.6703 30.104 12.0382 31.1956C12.1713 31.0217 12.2872 30.8784 12.3896 30.7215C13.3754 29.2478 14.3408 27.7571 15.3539 26.3039C15.5859 25.973 15.9475 25.6729 16.3159 25.5091C18.4854 24.5437 20.6754 23.6159 22.8654 22.6949C23.1793 22.5618 23.5374 22.48 23.8752 22.48C27.7571 22.4663 31.6391 22.4663 35.5177 22.48C35.8554 22.48 36.217 22.5516 36.5308 22.6812C38.7208 23.5988 40.9074 24.5267 43.0769 25.4955C43.4624 25.666 43.8342 25.9867 44.0764 26.3312C45.1782 27.914 46.2289 29.531 47.3375 31.1956C47.5252 31.0558 47.6957 30.9398 47.856 30.8102C49.0466 29.8618 50.22 28.8965 51.431 27.9754C51.7039 27.7674 52.0928 27.6275 52.4339 27.6173C53.7199 27.5763 55.0094 27.59 56.2954 27.6036C58.0556 27.6241 59.4099 28.951 59.4201 30.6498C59.4303 32.3452 58.0761 33.7779 56.3261 33.6995C55.0878 33.6449 54.1498 34.0304 53.2048 34.7842C51.1615 36.408 49.0397 37.9362 46.9487 39.502C46.1266 40.116 45.6456 40.0239 45.0691 39.1574C43.4453 36.7252 41.825 34.293 40.2047 31.8608C40.0853 31.6834 39.9625 31.5095 39.826 31.3116C39.253 31.6971 38.9187 32.1133 38.9255 32.874C38.9664 36.8344 38.9528 40.7914 38.9357 44.7518C38.9357 45.1816 39.0346 45.4034 39.4644 45.5603C40.7232 46.0242 41.9717 46.5291 43.2031 47.0612C43.5033 47.1909 43.8138 47.4331 43.9843 47.706C44.9906 49.3263 45.9799 50.9637 46.9384 52.6147C48.0539 54.5386 47.0169 56.9845 44.8849 57.3904C43.6534 57.6258 42.6403 57.0595 41.8148 56.1794C41.4293 55.7701 41.0507 55.3266 40.7914 54.8354C40.5049 54.2964 40.1194 54.1429 39.5668 54.2146C39.3962 54.235 39.2222 54.2146 38.9801 54.2146C38.9664 54.4533 38.9459 54.658 38.9459 54.8627C38.9459 56.599 38.9459 58.3353 38.9459 60.0716C38.9459 61.0268 38.5946 61.3986 37.6463 61.3986C32.3623 61.4054 27.0749 61.4054 21.7909 61.3986C20.8426 61.3986 20.4946 61.0268 20.4946 60.0716C20.4946 58.3558 20.4946 56.6399 20.4946 54.9241V54.218C20.058 54.218 19.6691 54.1873 19.2905 54.2316C19.137 54.2521 18.9732 54.4158 18.8607 54.5523C18.3149 55.2106 17.8612 55.9645 17.2369 56.5342C15.7121 57.9226 13.6483 57.6838 12.5806 56.0566C11.8813 54.9889 11.8028 53.8427 12.4373 52.7341C13.4198 51.008 14.4602 49.3126 15.504 47.6207C15.6541 47.3785 15.9475 47.1772 16.217 47.0646C17.4928 46.5291 18.7754 46.0208 20.0682 45.5262C20.3923 45.4034 20.5049 45.2362 20.5049 44.8849C20.4912 40.7709 20.5151 36.6536 20.4673 32.5397C20.4639 32.1133 20.0546 31.6937 19.8363 31.2707L19.5975 31.3218L19.5838 31.3253ZM18.3422 26.8531C19.5088 28.0164 20.6345 29.1387 21.7841 30.2814C22.4766 29.8243 23.2373 29.3195 24.0218 28.7975L25.1544 30.4963C24.4175 30.9875 23.7353 31.4754 23.0189 31.9086C22.6574 32.1269 22.538 32.3793 22.5414 32.8023C22.5584 36.6638 22.5516 40.5253 22.5516 44.3868C22.5516 44.5744 22.5687 44.7655 22.5755 44.977H36.8276C36.8446 44.8473 36.8651 44.7552 36.8651 44.6597C36.8651 40.6413 36.8719 36.6229 36.8514 32.6045C36.8514 32.4032 36.6843 32.1371 36.5137 32.0143C35.7906 31.489 35.0367 31.008 34.2657 30.4929C34.6512 29.9164 35.0162 29.3706 35.3983 28.801L37.636 30.2712C38.8197 29.0909 39.9386 27.972 41.0677 26.8463C39.3621 26.1129 37.6019 25.3283 35.8213 24.6051C34.9923 24.2674 34.3408 24.5335 33.853 25.2601C32.8023 26.8327 31.7551 28.4087 30.7044 29.9778C30.0768 30.9159 29.3161 30.9125 28.685 29.9676C27.6548 28.4291 26.5734 26.918 25.6319 25.3283C25.1885 24.5813 24.6427 24.4448 23.9059 24.5301C23.8274 24.5403 23.7455 24.5403 23.6773 24.571C21.8728 25.3386 20.0682 26.1095 18.3353 26.8497L18.3422 26.8531ZM28.6304 59.3246V47.0953H26.6451C26.6451 48.1289 26.6587 49.1216 26.6451 50.1109C26.611 52.1337 25.2669 53.7506 23.3157 54.1497C23.0735 54.1975 22.8279 54.2214 22.5925 54.2555V59.3246H28.6304ZM30.7829 47.0715V59.3109H36.8208V54.2487C35.1493 54.0235 34.1702 53.4675 33.4471 52.3589C32.9763 51.6357 32.7716 50.8374 32.7716 49.9778C32.7716 49.0124 32.7716 48.0471 32.7716 47.0681H30.7829V47.0715ZM46.3517 37.3904C48.3132 35.9202 50.2644 34.5557 52.0962 33.0445C53.3038 32.0484 54.542 31.4856 56.1283 31.68C56.889 31.7721 57.3495 31.3082 57.3495 30.6669C57.3495 30.0256 56.906 29.6401 56.1317 29.6333C55.1185 29.6265 54.1054 29.6094 53.0923 29.6435C52.8091 29.6538 52.4817 29.7629 52.2565 29.9369C50.8545 31.0217 49.4798 32.1405 48.0914 33.2458C47.167 33.9826 46.6928 33.911 46.0481 32.9422C45.0009 31.3696 43.9536 29.8004 42.9098 28.2347L41.327 29.8448C42.9678 32.3077 44.6427 34.8149 46.3551 37.3836L46.3517 37.3904ZM16.541 28.1938C15.4392 29.8482 14.3715 31.4549 13.3004 33.0582C12.7614 33.8666 12.2156 33.9519 11.4549 33.3447C10.0188 32.2054 8.59629 31.0524 7.15675 29.9232C6.97255 29.78 6.7167 29.6503 6.49156 29.6469C5.37951 29.6196 4.27086 29.6231 3.1588 29.6401C2.48679 29.6503 2.0638 30.0802 2.07403 30.6839C2.08426 31.2639 2.49361 31.6664 3.13833 31.6937C3.60567 31.7141 4.07642 31.7312 4.54034 31.6937C5.20553 31.6357 5.72745 31.8608 6.25278 32.2633C8.49395 33.9792 10.7658 35.6575 13.0752 37.387C14.774 34.8388 16.4557 32.3179 18.1102 29.838L16.5444 28.1972L16.541 28.1938ZM34.8559 47.0817C34.8559 48.2142 34.8218 49.3024 34.8661 50.3906C34.9002 51.2127 35.5552 51.9768 36.3978 52.0825C37.2301 52.1849 38.0829 52.1064 38.9971 52.1064L38.0897 50.6839C38.6662 50.3019 39.2052 49.9403 39.7749 49.5617C40.1194 50.0665 40.4025 50.5339 40.7334 50.9637C41.7841 52.3179 42.8211 53.6824 43.9297 54.9889C44.438 55.5893 45.1168 55.371 45.2738 54.5864C45.3386 54.2589 45.2465 53.8496 45.093 53.5426C44.7518 52.8671 44.3288 52.2292 43.9331 51.5811C43.3839 50.6839 42.9951 49.5992 42.2309 48.9545C41.4668 48.3097 40.2968 48.1767 39.3655 47.6957C37.9396 46.9589 36.4421 47.0101 34.8525 47.0885L34.8559 47.0817ZM24.571 47.0544C23.5988 47.0544 22.6846 47.051 21.7738 47.0578C21.6613 47.0578 21.5487 47.1158 21.443 47.1602C20.1058 47.6923 18.7651 48.2245 17.4348 48.7703C17.2642 48.8385 17.0732 48.9545 16.9845 49.1045C16.0532 50.6362 15.1288 52.1712 14.2248 53.7199C13.9246 54.2384 14.0815 54.849 14.5216 55.1868C15.0606 55.5995 15.3778 55.1492 15.6405 54.8354C16.6093 53.6654 17.5405 52.4646 18.465 51.2604C18.8777 50.7249 19.2427 50.1552 19.6555 49.5651C20.2388 49.9574 20.7812 50.3189 21.3304 50.6839C21.0097 51.1922 20.7266 51.6425 20.3957 52.1678C21.2485 52.1678 21.9888 52.2122 22.7188 52.1576C23.7455 52.0791 24.5301 51.2809 24.5642 50.2951C24.6017 49.2444 24.571 48.1903 24.571 47.0544ZM27.549 24.5472C28.2995 25.6729 28.9818 26.6962 29.7118 27.7912C30.4486 26.686 31.1342 25.6524 31.8711 24.5472H27.549ZM21.5078 7.08852V0H37.8885V7.08852C39.2666 7.1738 40.3821 7.6889 41.1905 8.77025C41.7704 9.54801 42.0331 10.4281 41.9956 11.4003C41.9171 13.4982 40.4878 14.8968 37.9055 15.3607V20.3991H21.5146V15.3641C18.7754 14.8525 17.3563 13.3447 17.4177 11.0558C17.4621 9.41497 18.6765 7.28296 21.5044 7.09193L21.5078 7.08852ZM23.5818 18.3285H35.8144V6.13679H23.5818V18.3285ZM35.8144 2.0365H23.6057V4.0116H35.8144V2.0365ZM21.4907 9.16596C20.6311 9.20348 20.0171 9.59236 19.6691 10.336C19.3212 11.0797 19.3962 11.8233 19.9147 12.4748C20.307 12.9695 20.8187 13.2731 21.4907 13.2117V9.16596ZM37.9226 13.2117C39.1131 13.198 39.9761 12.294 39.942 11.1513C39.9079 10.0256 39.0176 9.16254 37.9226 9.22054V13.2117ZM56.4046 45.0452H58.3899C58.3592 46.9487 58.1034 48.7532 56.9708 50.3258C56.7696 50.6055 56.7286 50.8272 56.8276 51.1717C57.3256 52.9012 56.6468 54.5625 55.0913 55.4051C53.2117 56.425 51.1718 56.3841 49.067 56.2818C49.1421 55.5791 49.2103 54.948 49.2751 54.3203C50.2132 54.2794 51.1308 54.3033 52.028 54.177C52.7477 54.0747 53.4743 53.8632 54.1429 53.5733C54.7979 53.2901 54.9582 52.8091 54.8763 52.219C53.9383 52.219 52.9899 52.3623 52.1098 52.1781C51.2843 52.0041 50.4554 51.5845 49.7697 51.0797C48.5622 50.1927 48.3029 48.7293 48.9647 47.4774C49.6231 46.2289 51.0592 45.5944 52.4373 45.9458C53.5937 46.2391 54.4227 46.9862 55.1356 47.8902C55.3028 48.1017 55.4597 48.32 55.695 48.6304C55.8792 47.972 56.0737 47.4228 56.1863 46.8566C56.2988 46.2869 56.3329 45.7002 56.4114 45.0452H56.4046ZM54.16 50.0051C53.7234 49.4798 53.3481 48.9408 52.8808 48.4974C52.6011 48.2279 52.202 48.0437 51.8233 47.9345C51.3935 47.8083 50.9705 48.0061 50.8136 48.4223C50.7147 48.6816 50.7249 49.1046 50.875 49.3195C51.489 50.1893 53.0377 50.5168 54.16 50.0085V50.0051ZM56.6979 42.6983C57.0425 43.0258 57.5337 43.111 57.8714 42.7904C58.6253 42.0774 59.3041 41.2826 59.9966 40.539C59.5941 40.1228 59.1472 39.6657 58.6185 39.1199C58.2125 39.5872 57.8236 40.0375 57.3665 40.5663C56.8856 40.0512 56.4796 39.6145 56.101 39.2086L54.6342 40.6379C55.3232 41.3304 55.9952 42.0297 56.6979 42.6983ZM5.42044 24.206C5.82979 24.5983 6.40287 24.6461 6.79175 24.2777C7.5047 23.5988 8.17671 22.8722 8.79073 22.2378L7.30343 20.6413L6.15726 22.1559L4.88829 20.7266L3.40782 22.2275C4.09006 22.8995 4.74502 23.5647 5.42044 24.2094V24.206ZM12.6625 21.1871C13.0513 21.5555 13.5937 21.5589 13.986 21.1871C14.6853 20.5185 15.3471 19.809 16.0123 19.1335L14.5421 17.6633L13.3379 19.0517L12.1167 17.6633L10.5987 19.1097C11.298 19.8158 11.9632 20.5185 12.6659 21.1837L12.6625 21.1871ZM28.7191 32.7546V34.7262H30.7147V32.7546H28.7191ZM28.7089 38.8334H30.701V36.8446H28.7089V38.8334ZM30.7181 42.9234V40.9688H28.6952V42.9234H30.7181ZM31.7278 12.7819C30.2814 11.9734 28.801 12.0314 27.4194 12.9524C26.246 13.7336 25.6626 14.8661 25.6183 16.3432C26.1607 16.3432 26.6485 16.3227 27.1295 16.35C27.5115 16.3739 27.6582 16.2477 27.7367 15.8554C27.9038 15.0026 28.644 14.3851 29.4934 14.2964C30.3497 14.2077 31.3355 14.6341 31.5163 15.4528C31.7346 16.4353 32.3179 16.3943 33.0241 16.3466C33.256 16.3295 33.488 16.3466 33.812 16.3466C33.7336 14.7365 33.0684 13.5357 31.7278 12.7853V12.7819ZM26.6928 10.1552H28.6338V8.1767H26.6928V10.1552ZM32.7443 8.19035H30.7795V10.162H32.7443V8.19035Z" fill="#ED4AB3"/>
</svg>
