<svg width="184" height="48" viewBox="0 0 184 48" fill="none" xmlns="http://www.w3.org/2000/svg">
<g clip-path="url(#clip0_46_1614)">
<path d="M5.00306 5.22193C5.30481 5.40355 5.52715 5.64045 5.67538 5.93262C5.83684 6.23795 5.91625 6.59592 5.91625 7.00654C5.91625 7.33292 5.84743 7.65405 5.70714 7.96727C5.56156 8.2805 5.36833 8.54108 5.13011 8.74902C4.60601 9.21492 3.9681 9.44918 3.22166 9.44918C2.74521 9.44918 2.29787 9.35442 1.87966 9.16754C1.44026 8.97276 1.05381 8.69901 0.725586 8.34367L1.82672 7.31187C2.22641 7.73038 2.68962 7.93832 3.22166 7.93832C3.60017 7.93832 3.89398 7.83303 4.10309 7.62509C4.29897 7.45927 4.3969 7.25396 4.3969 7.00917C4.3969 6.76438 4.33338 6.59855 4.20897 6.50906C4.08192 6.41957 3.76428 6.32744 3.25342 6.23795C2.60227 6.1116 2.13376 5.9642 1.84789 5.79048C1.25233 5.44304 0.95587 4.89028 0.95587 4.13222C0.95587 3.5005 1.17027 2.98723 1.59643 2.59767C2.00142 2.22917 2.54404 2.04492 3.22166 2.04492C3.58429 2.04492 3.98133 2.10546 4.40749 2.22128C4.83365 2.33972 5.20422 2.52134 5.51921 2.7635L4.58484 3.96376C4.43661 3.84532 4.23544 3.74793 3.97604 3.67159C3.71664 3.59526 3.46518 3.55578 3.22166 3.55578C2.92785 3.55578 2.72403 3.61106 2.61286 3.72161C2.52286 3.8111 2.47522 3.94797 2.47522 4.12959C2.47522 4.18486 2.47522 4.23224 2.48051 4.27173C2.48316 4.31121 2.49375 4.34016 2.50698 4.36648C2.52022 4.39017 2.53345 4.41123 2.54404 4.42439C2.55463 4.43755 2.57051 4.45334 2.59168 4.47177C2.61286 4.49019 2.6261 4.50072 2.63404 4.50862C2.76109 4.58495 3.05755 4.66392 3.52606 4.74815C4.19838 4.86659 4.69072 5.02715 5.0057 5.2272L5.00306 5.22193Z" fill="white"/>
<path d="M8.45461 7.77812H11.4457V9.29161H6.93262V2.19531H11.2339V3.7088H8.45461V4.82484H11.0248V6.33833H8.45461V7.77812Z" fill="white"/>
<path d="M16.6152 6.54627L18.1266 9.28897H16.3955L14.1933 5.32495H15.485C15.71 5.32495 15.9006 5.24598 16.0567 5.08542C16.2129 4.92486 16.2923 4.73534 16.2923 4.51161C16.2923 4.28788 16.2129 4.09836 16.0567 3.94306C15.9006 3.78777 15.71 3.7088 15.485 3.7088H14.0689V9.29161H12.5469V2.19531H15.485C16.1282 2.19531 16.6761 2.42168 17.1314 2.87441C17.592 3.3324 17.8249 3.87989 17.8249 4.51161C17.8249 5.14333 17.5946 5.70134 17.1314 6.15934C16.9779 6.31201 16.8058 6.44098 16.6179 6.54627H16.6152Z" fill="white"/>
<path d="M23.1427 2.19531H24.7997L21.5254 9.4469L18.2617 2.19531H19.9187L21.5228 5.75399L23.1374 2.19531H23.1427Z" fill="white"/>
<path d="M27.1079 2.19531V9.28897H25.5859V2.19531H27.1079Z" fill="white"/>
<path d="M30.3689 7.29909C30.7951 7.72286 31.3139 7.93607 31.9227 7.93607C32.5315 7.93607 33.0582 7.72286 33.487 7.29909L34.567 8.36248C34.2176 8.70992 33.8046 8.98103 33.3282 9.17581C32.8809 9.35743 32.415 9.44693 31.9332 9.44693C31.4515 9.44693 30.9883 9.35743 30.5277 9.17581C30.0671 8.98893 29.6569 8.71782 29.2995 8.36248C28.9422 8.00714 28.6696 7.60178 28.4816 7.14116C28.299 6.68316 28.209 6.21727 28.209 5.74348C28.209 5.26969 28.299 4.8038 28.4816 4.34581C28.6696 3.88781 28.9422 3.47983 29.2995 3.12449C29.6569 2.76915 30.0645 2.49803 30.5277 2.31115C30.9883 2.12953 31.4568 2.04004 31.9332 2.04004C32.4097 2.04004 32.8809 2.12953 33.3282 2.31115C33.8046 2.50593 34.2176 2.77704 34.567 3.12449L33.487 4.19841C33.0608 3.77463 32.5394 3.56143 31.9227 3.56143C31.3059 3.56143 30.7977 3.77463 30.3689 4.19841C29.9401 4.62218 29.7283 5.13809 29.7283 5.74348C29.7283 6.34888 29.9427 6.85952 30.3689 7.29909Z" fill="white"/>
<path d="M37.1372 2.19531V9.28897H35.6152V2.19531H37.1372Z" fill="white"/>
<path d="M44.5962 3.12449C44.9324 3.45877 45.1971 3.85096 45.393 4.30369C45.5889 4.75642 45.6868 5.23548 45.6868 5.74348C45.6868 6.25149 45.5889 6.73054 45.393 7.18327C45.1971 7.636 44.9324 8.02819 44.5962 8.36248C44.2601 8.69676 43.8657 8.95998 43.4104 9.15476C42.9551 9.34954 42.4734 9.44693 41.9625 9.44693C41.4517 9.44693 40.9699 9.34954 40.5147 9.15476C40.0673 8.96787 39.6729 8.70203 39.3288 8.36248C38.9927 8.02819 38.728 7.636 38.5321 7.18327C38.3362 6.73054 38.2383 6.25149 38.2383 5.74348C38.2383 5.23548 38.3362 4.75642 38.5321 4.30369C38.728 3.85096 38.9927 3.45877 39.3288 3.12449C39.6703 2.78494 40.0673 2.51909 40.5147 2.33221C40.9699 2.13743 41.4517 2.04004 41.9625 2.04004C42.4734 2.04004 42.9551 2.13743 43.4104 2.33221C43.8657 2.52699 44.2601 2.7902 44.5962 3.12449ZM40.4061 7.29119C40.8376 7.7176 41.3564 7.93344 41.9652 7.93344C42.574 7.93344 43.0928 7.72023 43.5242 7.29119C43.9557 6.86215 44.1701 6.34625 44.1701 5.74085C44.1701 5.13545 43.9557 4.61955 43.5242 4.19051C43.0954 3.76147 42.574 3.54826 41.9652 3.54826C41.3564 3.54826 40.8376 3.76147 40.4061 4.19051C39.9747 4.61955 39.7603 5.13545 39.7603 5.74085C39.7603 6.34625 39.9747 6.86215 40.4061 7.29119Z" fill="white"/>
<path d="M18.7166 39.1428L16.9193 35.4209H7.74232L5.90799 39.1428H0L12.3295 13.7793L24.6219 39.1401H18.7139L18.7166 39.1428ZM9.76195 31.2252H14.8626L12.3295 25.9714L9.7593 31.2252H9.76195Z" fill="white"/>
<path d="M31.6896 13.7793V39.1401H26.8086V13.7793H31.6896Z" fill="white"/>
<path d="M52.9151 14.3271V19.6178H46.1998V39.1405H40.8794V19.6178H34.2012V14.3271H52.9177H52.9151Z" fill="white"/>
<path d="M67.4496 24.3632C69.2099 26.0662 70.0913 28.1825 70.0913 30.712C70.0913 33.2415 69.2099 35.3577 67.4496 37.0607C65.6894 38.8111 63.5586 39.6876 61.0652 39.6876C58.5718 39.6876 56.478 38.8111 54.7178 37.0607C52.9576 35.3577 52.0762 33.2415 52.0762 30.712C52.0762 28.1825 52.9576 26.0662 54.7178 24.3632C56.478 22.6128 58.5956 21.7363 61.0652 21.7363C63.5348 21.7363 65.6894 22.6128 67.4496 24.3632ZM61.0652 34.8366C62.214 34.8366 63.1934 34.4338 64.0007 33.631C64.808 32.8282 65.213 31.8543 65.213 30.712C65.213 29.5696 64.8106 28.5957 64.0007 27.7929C63.1934 26.9901 62.214 26.59 61.0652 26.59C59.9164 26.59 58.9662 26.9901 58.1483 27.7929C57.3277 28.5957 56.9201 29.5696 56.9201 30.712C56.9201 31.8543 57.3304 32.8282 58.1483 33.631C58.9688 34.4338 59.9403 34.8366 61.0652 34.8366Z" fill="white"/>
<path d="M85.3669 45.6468V37.8636C83.8979 39.0796 82.2488 39.6876 80.4119 39.6876C78.1619 39.6876 76.227 38.8111 74.6124 37.0607C72.9977 35.3077 72.1904 33.1915 72.1904 30.712C72.1904 28.2325 72.9977 26.1136 74.6124 24.3632C76.227 22.6128 78.1593 21.7363 80.4119 21.7363C82.2462 21.7363 83.8979 22.3444 85.3669 23.5604V22.2838H90.2479V45.6495H85.3669V45.6468ZM84.1546 27.7903C83.3473 26.9875 82.3679 26.5874 81.2192 26.5874C80.0704 26.5874 79.091 26.9875 78.2837 27.7903C77.4764 28.5931 77.0714 29.567 77.0714 30.7093C77.0714 31.8517 77.4737 32.8256 78.2837 33.6284C79.091 34.4312 80.0704 34.8339 81.2192 34.8339C82.3679 34.8339 83.3473 34.4312 84.1546 33.6284C84.962 32.8256 85.3669 31.8517 85.3669 30.7093C85.3669 29.567 84.9646 28.5931 84.1546 27.7903Z" fill="white"/>
<path d="M94.3398 31.552V22.2842H99.2208V31.552C99.2208 32.4522 99.5384 33.2261 100.176 33.8683C100.812 34.5132 101.582 34.8343 102.487 34.8343C103.392 34.8343 104.168 34.5184 104.816 33.8867C105.465 33.255 105.788 32.4759 105.788 31.552V22.2842H110.669V39.1431H105.788V37.6481C104.491 39.0115 102.964 39.6906 101.201 39.6906C99.3161 39.6906 97.7015 38.8931 96.3568 37.3006C95.0122 35.7082 94.3398 33.792 94.3398 31.552Z" fill="white"/>
<path d="M119.404 32.3544C119.674 32.7914 119.992 33.1704 120.357 33.4863C121.408 34.3865 122.681 34.8366 124.174 34.8366C125.667 34.8366 126.964 34.3996 127.991 33.5231L131.146 37.2081C129.214 38.8638 126.89 39.6903 124.174 39.6903C121.458 39.6903 119.11 38.8506 117.202 37.1713C116.222 36.3448 115.465 35.3946 114.925 34.3259C114.388 33.231 114.118 32.0281 114.118 30.7146C114.118 28.2825 114.939 26.1768 116.577 24.4001C117.31 23.621 118.239 22.9761 119.367 22.4654C120.468 21.9785 121.606 21.7363 122.779 21.7363C123.952 21.7363 125.09 21.9811 126.191 22.4654C127.292 22.9524 128.208 23.5973 128.944 24.4001C130.632 26.2005 131.477 28.3036 131.477 30.7146C131.477 31.0805 131.427 31.628 131.331 32.3571H119.404V32.3544ZM119.293 29.0695H126.265C125.971 28.3404 125.505 27.7429 124.87 27.2823C124.235 26.8217 123.536 26.59 122.779 26.59C122.022 26.59 121.323 26.8217 120.688 27.2823C120.053 27.7455 119.587 28.3404 119.293 29.0695Z" fill="white"/>
<path d="M144.036 20.6338L161.223 30.7123L178.145 20.6338L161.09 10.7158L144.036 20.6338Z" fill="#EC4FB3"/>
<path d="M161.223 30.7123V48.0003L178.145 37.9929V20.6338L161.223 30.7123Z" fill="#DF26A5"/>
<path d="M144.036 20.6338L161.223 30.7123V48.0003L144.036 37.8139V20.6338Z" fill="#AD1778"/>
<path d="M170.308 3.98245L177.208 8.02808L184 3.98245L177.155 0L170.308 3.98245Z" fill="white"/>
<path d="M177.208 8.02805V14.9664L184 10.9497V3.98242L177.208 8.02805Z" fill="#D8D8D8"/>
<path d="M170.308 3.98242L177.208 8.02805V14.9664L170.308 10.8787V3.98242Z" fill="#BFC0C0"/>
</g>
<defs>
<clipPath id="clip0_46_1614">
<rect width="184" height="48" fill="white"/>
</clipPath>
</defs>
</svg>
