<svg width="243" height="65" viewBox="0 0 243 65" fill="none" xmlns="http://www.w3.org/2000/svg">
<g clip-path="url(#clip0_211_1188)">
<path d="M6.60706 7.07174C7.00557 7.31768 7.29921 7.63847 7.49496 8.03412C7.7082 8.44759 7.81307 8.93234 7.81307 9.48838C7.81307 9.93037 7.72218 10.3652 7.53691 10.7894C7.34465 11.2135 7.08946 11.5664 6.77485 11.848C6.0827 12.4789 5.24024 12.7961 4.25445 12.7961C3.62523 12.7961 3.03445 12.6678 2.48213 12.4147C1.90185 12.151 1.39147 11.7803 0.958008 11.2991L2.41222 9.90185C2.94007 10.4686 3.55182 10.7502 4.25445 10.7502C4.75434 10.7502 5.14236 10.6076 5.41852 10.326C5.6772 10.1015 5.80654 9.82343 5.80654 9.49195C5.80654 9.16046 5.72264 8.9359 5.55835 8.81472C5.39055 8.69353 4.97107 8.56877 4.2964 8.44759C3.43646 8.2765 2.81772 8.07689 2.44018 7.84164C1.65365 7.37114 1.26213 6.62262 1.26213 5.59608C1.26213 4.74063 1.54529 4.04558 2.10809 3.51805C2.64293 3.01904 3.35955 2.76953 4.25445 2.76953C4.73336 2.76953 5.25772 2.85151 5.82052 3.00834C6.38333 3.16874 6.87273 3.41468 7.28872 3.74261L6.05474 5.36796C5.85898 5.20757 5.5933 5.07568 5.25073 4.97232C4.90815 4.86895 4.57606 4.81548 4.25445 4.81548C3.86643 4.81548 3.59726 4.89034 3.45044 5.04004C3.33159 5.16123 3.26866 5.34658 3.26866 5.59252C3.26866 5.66737 3.26866 5.73153 3.27566 5.78499C3.27915 5.83846 3.29313 5.87767 3.31061 5.91331C3.32809 5.94539 3.34557 5.97391 3.35955 5.99173C3.37354 6.00955 3.39451 6.03094 3.42248 6.05589C3.45044 6.08084 3.46792 6.0951 3.47841 6.10579C3.6462 6.20916 4.03772 6.31609 4.65646 6.43015C5.54436 6.59054 6.19456 6.80797 6.61055 7.07886L6.60706 7.07174Z" fill="#490F68"/>
<path d="M11.1653 10.5327H15.1154V12.5822H9.15527V2.97266H14.8358V5.02217H11.1653V6.53347H14.5596V8.58299H11.1653V10.5327Z" fill="#490F68"/>
<path d="M21.9422 8.86457L23.9383 12.5787H21.6521L18.7437 7.2107H20.4496C20.7467 7.2107 20.9984 7.10377 21.2046 6.88634C21.4109 6.66892 21.5157 6.41228 21.5157 6.10931C21.5157 5.80634 21.4109 5.5497 21.2046 5.3394C20.9984 5.1291 20.7467 5.02217 20.4496 5.02217H18.5794V12.5822H16.5693V2.97266H20.4496C21.299 2.97266 22.0226 3.27919 22.6239 3.89227C23.2321 4.51247 23.5398 5.25386 23.5398 6.10931C23.5398 6.96476 23.2356 7.72041 22.6239 8.34061C22.4211 8.54734 22.1939 8.722 21.9457 8.86457H21.9422Z" fill="#490F68"/>
<path d="M30.5633 2.97266H32.7516L28.4274 12.7925L24.1172 2.97266H26.3055L28.4239 7.7917L30.5563 2.97266H30.5633Z" fill="#490F68"/>
<path d="M35.8001 2.97266V12.5787H33.79V2.97266H35.8001Z" fill="#490F68"/>
<path d="M40.1064 9.88432C40.6692 10.4582 41.3544 10.7469 42.1584 10.7469C42.9624 10.7469 43.658 10.4582 44.2243 9.88432L45.6506 11.3243C45.1891 11.7948 44.6438 12.162 44.0146 12.4257C43.4238 12.6717 42.8086 12.7929 42.1724 12.7929C41.5361 12.7929 40.9244 12.6717 40.3161 12.4257C39.7079 12.1727 39.1661 11.8055 38.6941 11.3243C38.2222 10.8431 37.8622 10.2942 37.614 9.67046C37.3728 9.05026 37.2539 8.41936 37.2539 7.77778C37.2539 7.13619 37.3728 6.50529 37.614 5.88509C37.8622 5.26489 38.2222 4.71241 38.6941 4.23122C39.1661 3.75003 39.7044 3.3829 40.3161 3.12983C40.9244 2.88388 41.5431 2.7627 42.1724 2.7627C42.8016 2.7627 43.4238 2.88388 44.0146 3.12983C44.6438 3.39359 45.1891 3.76072 45.6506 4.23122L44.2243 5.68549C43.6615 5.11162 42.9729 4.82291 42.1584 4.82291C41.3439 4.82291 40.6727 5.11162 40.1064 5.68549C39.5401 6.25935 39.2604 6.95797 39.2604 7.77778C39.2604 8.59758 39.5436 9.28907 40.1064 9.88432Z" fill="#490F68"/>
<path d="M49.0452 2.97266V12.5787H47.0352V2.97266H49.0452Z" fill="#490F68"/>
<path d="M58.8957 4.23122C59.3396 4.68389 59.6892 5.21499 59.9479 5.82806C60.2066 6.44113 60.3359 7.08985 60.3359 7.77778C60.3359 8.4657 60.2066 9.11442 59.9479 9.72749C59.6892 10.3406 59.3396 10.8717 58.8957 11.3243C58.4517 11.777 57.9309 12.1334 57.3296 12.3972C56.7284 12.661 56.0921 12.7929 55.4175 12.7929C54.7428 12.7929 54.1066 12.661 53.5053 12.3972C52.9145 12.1441 52.3937 11.7841 51.9392 11.3243C51.4953 10.8717 51.1457 10.3406 50.887 9.72749C50.6284 9.11442 50.499 8.4657 50.499 7.77778C50.499 7.08985 50.6284 6.44113 50.887 5.82806C51.1457 5.21499 51.4953 4.68389 51.9392 4.23122C52.3902 3.77141 52.9145 3.41141 53.5053 3.15834C54.1066 2.89458 54.7428 2.7627 55.4175 2.7627C56.0921 2.7627 56.7284 2.89458 57.3296 3.15834C57.9309 3.42211 58.4517 3.77854 58.8957 4.23122ZM53.362 9.87363C53.9318 10.4511 54.617 10.7433 55.421 10.7433C56.225 10.7433 56.9101 10.4546 57.4799 9.87363C58.0497 9.29264 58.3329 8.59402 58.3329 7.77421C58.3329 6.9544 58.0497 6.25579 57.4799 5.67479C56.9136 5.0938 56.225 4.80508 55.421 4.80508C54.617 4.80508 53.9318 5.0938 53.362 5.67479C52.7922 6.25579 52.5091 6.9544 52.5091 7.77421C52.5091 8.59402 52.7922 9.29264 53.362 9.87363Z" fill="#490F68"/>
<path d="M24.7181 53.0055L22.3445 47.9655H10.2249L7.8024 53.0055H0L16.283 18.6592L32.517 53.002H24.7146L24.7181 53.0055ZM12.8921 42.2839H19.6283L16.283 35.1694L12.8886 42.2839H12.8921Z" fill="#490F68"/>
<path d="M41.8504 18.6592V53.002H35.4043V18.6592H41.8504Z" fill="#490F68"/>
<path d="M69.8826 19.4004V26.5648H61.014V53.0018H53.9876V26.5648H45.168V19.4004H69.8861H69.8826Z" fill="#490F68"/>
<path d="M89.0774 32.9918C91.4021 35.298 92.5661 38.1637 92.5661 41.5891C92.5661 45.0145 91.4021 47.8802 89.0774 50.1864C86.7528 52.5567 83.9388 53.7436 80.6458 53.7436C77.3529 53.7436 74.5878 52.5567 72.2631 50.1864C69.9385 47.8802 68.7744 45.0145 68.7744 41.5891C68.7744 38.1637 69.9385 35.298 72.2631 32.9918C74.5878 30.6215 77.3843 29.4346 80.6458 29.4346C83.9073 29.4346 86.7528 30.6215 89.0774 32.9918ZM80.6458 47.1745C82.1629 47.1745 83.4563 46.6291 84.5225 45.542C85.5887 44.4549 86.1236 43.136 86.1236 41.5891C86.1236 40.0422 85.5922 38.7233 84.5225 37.6362C83.4563 36.5491 82.1629 36.0073 80.6458 36.0073C79.1287 36.0073 77.8737 36.5491 76.7935 37.6362C75.7099 38.7233 75.1715 40.0422 75.1715 41.5891C75.1715 43.136 75.7134 44.4549 76.7935 45.542C77.8772 46.6291 79.1601 47.1745 80.6458 47.1745Z" fill="#490F68"/>
<path d="M112.739 61.8134V51.2735C110.799 52.9203 108.622 53.7436 106.196 53.7436C103.224 53.7436 100.669 52.5567 98.5365 50.1864C96.4041 47.8125 95.3379 44.9467 95.3379 41.5891C95.3379 38.2315 96.4041 35.3621 98.5365 32.9918C100.669 30.6215 103.221 29.4346 106.196 29.4346C108.618 29.4346 110.799 30.2579 112.739 31.9047V30.176H119.186V61.8169H112.739V61.8134ZM111.138 37.6326C110.072 36.5455 108.779 36.0037 107.262 36.0037C105.745 36.0037 104.451 36.5455 103.385 37.6326C102.319 38.7198 101.784 40.0386 101.784 41.5855C101.784 43.1325 102.315 44.4513 103.385 45.5384C104.451 46.6256 105.745 47.1709 107.262 47.1709C108.779 47.1709 110.072 46.6256 111.138 45.5384C112.205 44.4513 112.739 43.1325 112.739 41.5855C112.739 40.0386 112.208 38.7198 111.138 37.6326Z" fill="#490F68"/>
<path d="M124.59 42.726V30.1758H131.036V42.726C131.036 43.945 131.455 44.9929 132.298 45.8626C133.137 46.7359 134.154 47.1707 135.35 47.1707C136.545 47.1707 137.569 46.743 138.426 45.8876C139.282 45.0321 139.709 43.9771 139.709 42.726V30.1758H146.155V53.0056H139.709V50.9811C137.996 52.8274 135.979 53.747 133.651 53.747C131.162 53.747 129.029 52.667 127.254 50.5106C125.478 48.3541 124.59 45.7592 124.59 42.726Z" fill="#490F68"/>
<path d="M157.691 43.8133C158.047 44.405 158.467 44.9182 158.949 45.346C160.337 46.565 162.019 47.1745 163.99 47.1745C165.962 47.1745 167.675 46.5828 169.031 45.3959L173.198 50.386C170.646 52.628 167.577 53.7472 163.99 53.7472C160.404 53.7472 157.303 52.6102 154.782 50.3361C153.489 49.2169 152.489 47.9301 151.776 46.483C151.067 45.0002 150.71 43.3713 150.71 41.5927C150.71 38.2992 151.794 35.4477 153.957 33.0417C154.926 31.9867 156.153 31.1134 157.642 30.4219C159.096 29.7625 160.599 29.4346 162.148 29.4346C163.696 29.4346 165.2 29.7661 166.654 30.4219C168.108 31.0813 169.318 31.9546 170.289 33.0417C172.52 35.4798 173.635 38.3277 173.635 41.5927C173.635 42.0881 173.568 42.8295 173.442 43.8168H157.691V43.8133ZM157.544 39.3649H166.752C166.364 38.3776 165.748 37.5685 164.909 36.9447C164.071 36.3209 163.148 36.0073 162.148 36.0073C161.148 36.0073 160.225 36.3209 159.386 36.9447C158.547 37.572 157.932 38.3776 157.544 39.3649Z" fill="#490F68"/>
<path d="M190.222 27.9413L212.919 41.5893L235.267 27.9413L212.744 14.5107L190.222 27.9413Z" fill="#EC4FB3"/>
<path d="M212.92 41.5894V65.0002L235.268 51.4485V27.9414L212.92 41.5894Z" fill="#DF26A5"/>
<path d="M190.222 27.9414L212.919 41.5894V65.0002L190.222 51.2061V27.9414Z" fill="#AD1778"/>
<path d="M224.917 5.3929L234.03 10.8714L243 5.3929L233.96 0L224.917 5.3929Z" fill="white"/>
<path d="M234.03 10.871V20.2667L243 14.8275V5.39258L234.03 10.871Z" fill="#D8D8D8"/>
<path d="M224.917 5.39258L234.03 10.871V20.2667L224.917 14.7312V5.39258Z" fill="#BFC0C0"/>
</g>
<defs>
<clipPath id="clip0_211_1188">
<rect width="243" height="65" fill="white"/>
</clipPath>
</defs>
</svg>
