<?xml version="1.0" encoding="utf-8"?>
<!-- Generator: Adobe Illustrator 23.0.5, SVG Export Plug-In . SVG Version: 6.00 Build 0)  -->
<svg version="1.1" id="Capa_1" xmlns="http://www.w3.org/2000/svg" xmlns:xlink="http://www.w3.org/1999/xlink" x="0px" y="0px"
	 viewBox="0 0 181.3 41.6" style="enable-background:new 0 0 181.3 41.6;" xml:space="preserve">
<style type="text/css">
	.st0{fill:#461086;}
</style>
<g>
	<path class="st0" d="M3.7,24.7v-21L1.2,2.9V1.1h20.1V8c-0.2,0.2-0.7,0.4-1.1,0.4c-0.7,0-1-0.4-1.2-1.1l-1.2-3.8l-7.7-0.3v9.9h5.4
		l1.5-2.9h1.6v7.1c0,0.5-0.3,1.2-1.3,1.2h-0.7l-0.7-3.1h-5.7v9.8l7.4-0.4l2.5-4.3c0.5-0.9,1-1.1,1.6-1.1c0.4,0,0.8,0.2,1.1,0.4
		l-1.5,7.4H1.2v-1.8L3.7,24.7z"/>
	<path class="st0" d="M24,1.1h10.6c1,0,1.3,0.4,1.3,1.3v0.9H33v21.9l7-0.6l2.3-5.1c0.3-0.7,0.9-1.1,1.5-1.1c0.5,0,0.9,0.2,1.2,0.5
		l-0.9,8.4h-20v-1.8l2.5-0.7V3.7L24,2.9V1.1z"/>
	<path class="st0" d="M55.1,24.7v-21L52.6,3V1.1h7.1c1.6,0,3.5-0.2,5.3-0.2c8.3,0,13.7,4.6,13.7,13c0,7.8-4.8,13.5-14.6,13.5
		c-0.7,0-2.6-0.1-4.4-0.1h-7.1v-1.8L55.1,24.7z M61.5,25.2c0.9,0.1,2.1,0.2,3.4,0.2c4.1,0,6.8-3.5,6.8-11C71.8,5.9,69,3,64.5,3
		c-0.9,0-2.3,0.1-3,0.1V25.2z"/>
	<path class="st0" d="M81.7,24.7v-21L79.2,3V1.1h10.2c1,0,1.3,0.4,1.3,1.3v0.9h-2.6V25h2.6v1c0,0.9-0.5,1.3-1.2,1.3H79.3v-1.8
		L81.7,24.7z"/>
	<path class="st0" d="M149.8,25.1V3.3h2.6V2.4c0-0.9-0.3-1.3-1.3-1.3h-10.2v1.8l2.5,0.7v21.1l-1.7,0.5V25h-1.9l-6.2-10.1
		c2.8-1.2,5.1-3.6,5.1-6.6c0-5.5-5.2-7.2-10.1-7.2H116v1.8l2.5,0.7v21.1l-1.1,0.3H116l-8.5-24.4c-3.2,0-4.7,0.3-5.7,3.2l-7.6,20.8
		l-2.5,0.7v1.8h8.1c0.6,0,0.9-0.3,0.9-0.9v-1.3h-3.2l1.7-5.3h8.3l1.8,5l-3.2,0.7v1.8h10l0,0h10.3c1,0,1.3-0.4,1.3-1.2v-1H125v-8.3
		h2.5l6.1,10.5h6h0.9h10.8c0.7,0,1.2-0.4,1.2-1.3v-1h-2.7V25.1z M99.8,17.5L103,7.4l3.6,10.2h-6.8C99.8,17.6,99.8,17.5,99.8,17.5z
		 M127.4,14.6c-0.9,0-1.8-0.1-2.5-0.1V3.1c0.7,0,1.7-0.1,2.3-0.1c3.1,0,4.7,2.1,4.7,6C132,11.7,130.8,14.6,127.4,14.6z"/>
	<path class="st0" d="M152.7,14.7c0-7.7,6.2-14,14-14c7.2,0,13,4.8,13,13.1c0,7.9-6.4,14-14.2,14C158.5,27.8,152.7,22.8,152.7,14.7z
		 M166.8,25.6c4.3,0,6-4.2,6-10.3c0-8.4-3.1-12.2-7.1-12.2c-3.9,0-6.1,3.5-6.1,10.1C159.7,21.4,162.6,25.6,166.8,25.6L166.8,25.6z"
		/>
	<g>
		<g>
			<path class="st0" d="M114.8,33.1c0-0.2,0.1-0.3,0.3-0.3l1.7-0.1v6.4h0.5c0,0.1,0,0.2,0,0.2c0,0.2-0.1,0.3-0.3,0.3l-1.2,0.1
				l-0.3-0.7c-0.3,0.5-0.8,0.8-1.5,0.8c-1.3,0-1.9-1.1-1.9-2.1c0-1.5,1-2.8,2.5-2.8c0.2,0,0.4,0,0.6,0.1v-1.6l-0.5-0.1v-0.2
				C114.7,33.1,114.8,33.1,114.8,33.1z M115.3,35.7c-0.2-0.1-0.3-0.1-0.6-0.1c-0.7,0-1.1,0.8-1.1,1.8s0.3,1.8,0.9,1.8
				c0.2,0,0.4-0.1,0.5-0.3s0.2-0.5,0.2-0.8L115.3,35.7L115.3,35.7z"/>
			<path class="st0" d="M119.3,37.4c0,1,0.7,1.5,1.5,1.5c0.2,0,0.5,0,1-0.2c0,0.1,0.1,0.2,0.1,0.3c0,0.2-0.1,0.3-0.3,0.4
				c-0.2,0.1-0.7,0.5-1.6,0.5c-1.4,0-2.3-1-2.3-2.3s1-2.6,2.4-2.6c0.9,0,1.4,0.4,1.6,1c0.1,0.3,0.1,0.6,0.1,1.1v0.4h-2.5
				C119.3,37.5,119.3,37.4,119.3,37.4z M120.7,36.8c0-0.4,0-0.6-0.1-0.8s-0.3-0.4-0.5-0.4c-0.5,0-0.7,0.7-0.7,1.2H120.7z"/>
			<path class="st0" d="M130,39.3c-0.5,0.2-1.3,0.5-2.2,0.5c-1.9,0-3.1-1.3-3.1-3.2s1.5-3.4,3.6-3.4c0.7,0,1.4,0.2,1.7,0.3v1.8
				c-0.1,0-0.2,0.1-0.3,0.1c-0.2,0-0.3-0.1-0.3-0.3L129,34c-0.2-0.1-0.6-0.2-1-0.2c-1,0-1.5,0.9-1.5,2.5c0,2,0.8,2.8,1.7,2.8
				c0.5,0,0.8-0.2,1.1-0.6l0.5-0.9l0.5,0.2L130,39.3z"/>
			<path class="st0" d="M134.8,39.1l-0.4-1.2h-2l-0.4,1.3h0.8v0.3c0,0.1-0.1,0.2-0.2,0.2h-1.9v-0.4l0.6-0.2l1.8-5
				c0.3-0.7,0.6-0.8,1.4-0.8l2,5.8h0.5v0.3c0,0.1-0.1,0.2-0.2,0.2H134v-0.4L134.8,39.1z M134.2,37.4l-0.9-2.4l-0.8,2.4H134.2z"/>
			<path class="st0" d="M139.4,37.2v2h0.6v0.2c0,0.2-0.1,0.3-0.3,0.3h-2.5v-0.4l0.6-0.2v-5l-0.6-0.2v-0.4h3c1.2,0,2.4,0.4,2.4,1.7
				c0,0.7-0.5,1.3-1.2,1.6l1.5,2.4h0.4v0.2c0,0.2-0.1,0.3-0.3,0.3h-1.6l-1.4-2.5C140,37.2,139.4,37.2,139.4,37.2z M139.4,36.6
				c0.2,0,0.4,0,0.6,0c0.8,0,1.1-0.7,1.1-1.3c0-0.9-0.4-1.4-1.1-1.4c-0.2,0-0.4,0-0.6,0V36.6z"/>
			<path class="st0" d="M143.7,33.4h2.5c0.2,0,0.3,0.1,0.3,0.3V34h-0.7v5.2l1.7-0.1l0.6-1.2c0.1-0.2,0.2-0.3,0.4-0.3
				c0.1,0,0.2,0,0.3,0.1l-0.2,2h-4.8v-0.4l0.6-0.2v-5l-0.6-0.2v-0.5C143.8,33.4,143.7,33.4,143.7,33.4z"/>
			<path class="st0" d="M149.1,36.7c0-1.8,1.5-3.3,3.3-3.3c1.7,0,3.1,1.1,3.1,3.1c0,1.9-1.5,3.3-3.4,3.3
				C150.5,39.8,149.1,38.6,149.1,36.7z M153.9,36.8c0-2-0.7-2.9-1.7-2.9c-0.9,0-1.4,0.8-1.4,2.4c0,2,0.7,3,1.7,3
				S153.9,38.3,153.9,36.8z"/>
			<path class="st0" d="M157.3,39.1c0.2,0.1,0.6,0.2,0.9,0.2c0.7,0,1-0.3,1-0.7c0-0.6-0.7-1.1-1.4-1.5c-1-0.7-1.6-1.2-1.6-2
				c0-1.1,1-1.7,2.5-1.7c0.4,0,1.2,0.1,1.6,0.2v1.8c-0.1,0-0.2,0.1-0.3,0.1c-0.2,0-0.3-0.1-0.3-0.2l-0.4-1.1
				c-0.2-0.1-0.5-0.1-0.7-0.1c-0.5,0-0.9,0.3-0.9,0.7c0,0.5,0.4,0.9,1.2,1.4c1.1,0.7,1.7,1.2,1.7,2.1c0,1-1,1.9-2.5,1.9
				c-0.7,0-1.6-0.2-2-0.3V38h0.6L157.3,39.1z"/>
			<path class="st0" d="M164.1,39.1v-5l-0.6-0.2v-0.4h2.8c1.3,0,2.5,0.5,2.5,1.9c0,1.3-1.3,2.1-2.8,2.1h-0.4v1.7h0.8v0.2
				c0,0.2-0.1,0.3-0.3,0.3h-2.6v-0.4L164.1,39.1z M165.6,37c0.1,0,0.3,0,0.5,0c0.9,0,1.1-0.8,1.1-1.5c0-1-0.3-1.6-1.1-1.6
				c-0.1,0-0.3,0-0.5,0V37z"/>
			<path class="st0" d="M172.2,39.1l-0.4-1.2h-2l-0.4,1.3h0.8v0.3c0,0.1-0.1,0.2-0.2,0.2h-2v-0.4l0.6-0.2l1.8-5
				c0.3-0.7,0.6-0.8,1.4-0.8l2,5.8h0.5v0.3c0,0.1-0.1,0.2-0.2,0.2h-2.6v-0.4L172.2,39.1z M171.6,37.4l-0.9-2.4l-0.8,2.4H171.6z"/>
			<path class="st0" d="M174.7,39.7c0-0.3-0.1-0.5,0.2-1l2.9-4.7l-1.9,0.1l-0.5,1.3h-0.5v-2h4.7c0,0.1,0,0.3,0,0.4
				c0,0.2-0.1,0.5-0.3,0.8l-2.7,4.4l1.8,0.1l0.7-1.4c0.1-0.2,0.2-0.3,0.4-0.3c0.1,0,0.2,0,0.3,0.1l-0.3,2.1h-4.8L174.7,39.7
				L174.7,39.7z"/>
		</g>
		<rect x="1.2" y="34.7" class="st0" width="107.5" height="4.6"/>
	</g>
</g>
</svg>
