<svg width="59" height="53" viewBox="0 0 59 53" fill="none" xmlns="http://www.w3.org/2000/svg">
<path d="M37.6612 43.7116C37.4688 45.6962 37.6249 47.5853 38.0097 49.4541C38.0376 49.5843 38.3499 49.7319 38.534 49.7348C40.4105 49.755 42.2871 49.7463 44.1665 49.7492C44.398 49.7492 44.6433 49.7405 44.8552 49.8186C45.3655 50.0125 45.6137 50.4291 45.5914 50.9874C45.5691 51.5255 45.1592 51.9739 44.6433 52.052C44.4537 52.0809 44.2557 52.0694 44.0633 52.0694C34.58 52.0694 25.0967 52.0694 15.6133 52.0694C15.4962 52.0694 15.3819 52.0723 15.2648 52.0694C14.5844 52.0404 14.0937 51.5631 14.0853 50.9209C14.0769 50.2728 14.5538 49.7637 15.2397 49.755C16.8263 49.7376 18.4129 49.7463 19.9995 49.7463C20.5014 49.7463 21.0033 49.7463 21.5498 49.7463C21.982 47.7704 22.0713 45.8061 21.9151 43.7521C21.6586 43.7376 21.416 43.7116 21.1762 43.7116C16.2407 43.7116 11.3053 43.7145 6.36981 43.7087C3.87699 43.7058 1.93347 42.3548 1.22522 40.0954C1.04398 39.5139 0.943593 38.8775 0.940805 38.2671C0.926863 27.3259 0.924075 16.3818 0.93244 5.43772C0.935228 2.32489 3.13806 0.0105253 6.13001 0.00763238C22.2888 -0.00393946 38.4503 -0.0010465 54.6091 0.00763238C56.9987 0.00763238 58.747 1.83598 58.7498 4.32104C58.7582 15.647 58.761 26.97 58.7498 38.296C58.747 41.4551 56.494 43.7029 53.3487 43.7116C48.3547 43.7261 43.3635 43.7145 38.3694 43.7145H37.6612V43.7116ZM56.4856 33.106V32.4348C56.4856 23.1571 56.4856 13.8794 56.4856 4.60455C56.4856 3.0221 55.8164 2.33068 54.2912 2.33068C38.3416 2.33068 22.3947 2.33068 6.4451 2.33068C4.33707 2.33068 3.20219 3.49654 3.19941 5.66627C3.19941 14.6026 3.19941 23.539 3.19941 32.4725C3.19941 32.6836 3.22171 32.8919 3.23565 33.106H56.4829H56.4856ZM56.4327 35.5303H3.21892C3.21892 36.6239 3.21335 37.648 3.2245 38.6692C3.2245 38.8659 3.2719 39.0684 3.32767 39.2564C3.72641 40.5988 4.79158 41.3481 6.30289 41.3481C21.996 41.3481 37.6863 41.3481 53.3794 41.3481C53.5523 41.3481 53.7279 41.3509 53.9008 41.3394C55.1193 41.2439 56.2932 40.2198 56.4104 38.9671C56.5163 37.836 56.4327 36.6875 56.4327 35.5303ZM24.0008 49.7H35.6089C35.4807 47.6923 35.3552 45.7251 35.2297 43.755H24.3243C24.2155 45.7569 24.1096 47.7097 24.0036 49.7H24.0008ZM29.8425 29.8919C25.9917 29.8919 22.1382 29.8572 18.2874 29.9122C17.1358 29.9295 16.5028 29.1427 16.9016 27.9768C17.6489 25.8071 18.2707 23.5911 18.9511 21.3953C19.2299 20.4898 19.5422 20.2642 20.4819 20.2613C21.1399 20.2613 21.8008 20.2294 22.4561 20.2728C22.9022 20.3018 23.0946 20.1426 23.2257 19.7058C23.7806 17.8283 24.3717 15.9623 24.9517 14.0906C25.2222 13.2198 25.501 13.0086 26.3849 13.0086C28.6881 13.0086 30.9913 13.0086 33.2946 13.0086C34.1813 13.0086 34.4601 13.2198 34.7306 14.0877C35.3161 15.9768 35.9101 17.863 36.4733 19.7608C36.5904 20.1571 36.7633 20.2931 37.1649 20.2728C37.8787 20.2352 38.5981 20.2584 39.3119 20.2642C40.1122 20.2699 40.4412 20.5043 40.6838 21.2825C41.4004 23.5708 42.1143 25.8591 42.8141 28.1533C43.1348 29.2063 42.6413 29.8919 41.5705 29.8919C37.6612 29.8977 33.7519 29.8919 29.8397 29.8919H29.8425ZM40.2488 27.5197C39.7525 25.9199 39.2868 24.3953 38.7933 22.8852C38.7542 22.7608 38.5089 22.6364 38.3583 22.6364C36.6741 22.619 34.9927 22.6335 33.3085 22.619C33.0018 22.619 32.8651 22.7347 32.7787 23.0269C32.4776 24.0424 32.1541 25.0491 31.8446 26.0616C31.7024 26.5303 31.5685 26.999 31.4152 27.5226H40.246L40.2488 27.5197ZM28.2866 27.5197C27.7903 25.9199 27.333 24.4127 26.8422 22.9199C26.7976 22.7839 26.5355 22.6393 26.3738 22.6393C24.7091 22.619 23.0472 22.6364 21.3825 22.619C21.0563 22.6161 20.9029 22.7261 20.8081 23.0501C20.4038 24.4098 19.9772 25.7608 19.5617 27.1176C19.5255 27.2391 19.5282 27.3751 19.5087 27.5226H28.2838L28.2866 27.5197ZM34.2649 20.2468C33.7797 18.673 33.328 17.1658 32.8373 15.6701C32.7871 15.5168 32.511 15.3548 32.3354 15.349C31.1001 15.3201 29.862 15.3288 28.6268 15.3374C28.0719 15.3403 27.3859 15.1783 27.0012 15.456C26.6442 15.7135 26.5996 16.4483 26.4323 16.9806C26.0949 18.0539 25.7659 19.133 25.4229 20.2468H34.2649ZM29.77 24.6441L29.9067 24.6586C30.1074 24.0076 30.3082 23.3538 30.5229 22.6624H29.1622C29.3741 23.3567 29.5721 23.999 29.77 24.6441ZM22.2469 13.4223C22.5453 13.0231 22.4784 12.5313 22.1689 12.1378C21.3156 11.0472 20.454 9.96231 19.5729 8.8977C19.1156 8.34804 18.4603 8.31332 17.9751 8.74727C17.4927 9.17832 17.4342 9.84949 17.8775 10.4165C18.6945 11.4609 19.5171 12.4994 20.3676 13.512C20.5795 13.7637 20.9113 13.9083 21.2933 14.1774C21.6502 13.9054 22.0239 13.7232 22.2469 13.4223ZM39.1167 13.7203C40.0787 12.5689 41.0324 11.4059 41.9358 10.2053C42.2899 9.73377 42.1143 9.0655 41.6625 8.70388C41.222 8.35093 40.6113 8.33358 40.2377 8.7762C39.2812 9.90735 38.3388 11.053 37.4716 12.2564C37.2848 12.5168 37.3182 13.0896 37.4604 13.4223C37.5915 13.7261 38.0069 13.8967 38.2942 14.1253C38.6511 13.9546 38.9606 13.9054 39.1195 13.7174L39.1167 13.7203ZM30.983 6.56887C30.983 6.52837 30.983 6.48787 30.983 6.44737C30.9412 5.6923 30.4839 5.19471 29.8425 5.19471C29.1984 5.19471 28.7272 5.69519 28.7132 6.45315C28.6937 7.63348 28.6937 8.8167 28.7132 9.99703C28.7272 10.7666 29.1873 11.241 29.8481 11.241C30.5062 11.241 30.9523 10.7637 30.9802 9.99124C30.9997 9.41265 30.983 8.83117 30.9858 8.24968C30.9858 7.68845 30.9858 7.12721 30.9858 6.56887H30.983Z" fill="#AE0C79"/>
</svg>
