<svg id="Capa_1" data-name="Capa 1" xmlns="http://www.w3.org/2000/svg" viewBox="0 0 705.9 92.7"><defs><style>.cls-1{fill:#461086;}</style></defs><title>Objeto inteligente vectorial</title><path class="cls-1" d="M122,74H102V71.7c1-.1,1.2-.1,1.9-.2s1.2-.2,1.7-.3a3.52,3.52,0,0,0,1.8-1.3,4.27,4.27,0,0,0,.6-2.4V41.9a5.42,5.42,0,0,0-.6-2.5,6.14,6.14,0,0,0-1.7-1.9,8.67,8.67,0,0,0-2.1-.9c-1-.2-2.6-.4-2.6-.4V33.4l14.5-.9.5.6V66.8a4.29,4.29,0,0,0,.5,2.4,3.41,3.41,0,0,0,1.7,1.4,7.59,7.59,0,0,0,1.8.6,5.25,5.25,0,0,0,2,.3Zm-5.4-57.7a6,6,0,0,1-1.6,4.2,4.84,4.84,0,0,1-3.9,1.8,5,5,0,0,1-3.7-1.7,5.7,5.7,0,0,1-1.6-3.9,5.51,5.51,0,0,1,1.6-4,5.2,5.2,0,0,1,7.6-.1,4.85,4.85,0,0,1,1.6,3.7"/><path class="cls-1" d="M191,74H171V71.7a13,13,0,0,1,1.8-.2c.7-.1,1.2-.2,1.7-.3a3.81,3.81,0,0,0,1.9-1.3,4.27,4.27,0,0,0,.7-2.4V46.1a10.31,10.31,0,0,0-2.1-6.7,6.34,6.34,0,0,0-5-2.4,12.26,12.26,0,0,0-3.9.6,10.62,10.62,0,0,0-3.3,1.8,14.16,14.16,0,0,0-2.2,2c-.5.7-.4,1.3-1.4,1.8V67a4.27,4.27,0,0,0,.7,2.4,3.28,3.28,0,0,0,1.8,1.4,16.59,16.59,0,0,0,1.6.6,15.25,15.25,0,0,0,1.9.3V74h-19V71.7a10.77,10.77,0,0,1,1.6-.2c.6-.1,1-.2,1.5-.3a2.78,2.78,0,0,0,1.5-1.3,4.4,4.4,0,0,0,.3-2.4V46.1c0-2.9-.5-5.1-1.8-6.7a6,6,0,0,0-4.9-2.4,11.64,11.64,0,0,0-3.8.6,10.62,10.62,0,0,0-3.3,1.8,8,8,0,0,0-2,2.1c-.6.8-1.2,1.3-1.2,1.7V66.8a4.75,4.75,0,0,0,.6,2.4,4.53,4.53,0,0,0,1.8,1.5,5.78,5.78,0,0,0,1.7.6c.6.1,1,.2,2,.3v2.3h-20V71.6c1-.1,1.3-.1,2-.2s1.3-.2,1.8-.3a3.26,3.26,0,0,0,1.7-1.3,4.29,4.29,0,0,0,.5-2.4V41.7a4.75,4.75,0,0,0-.6-2.4,4.85,4.85,0,0,0-1.7-1.8,9.27,9.27,0,0,0-2.2-.8,17.82,17.82,0,0,0-2.6-.4V33.5l14.2-.9.8.6V39h.2a15.37,15.37,0,0,1,2.6-2.4,26,26,0,0,1,2.8-2.3,14.16,14.16,0,0,1,3.7-1.7,17.78,17.78,0,0,1,4.7-.7,10.76,10.76,0,0,1,6.9,2.2,12.06,12.06,0,0,1,4.1,5.2c1-1,1.9-1.8,2.7-2.6s1.8-1.5,3-2.4a18.18,18.18,0,0,1,3.7-1.8,17.33,17.33,0,0,1,4.8-.7c3.5,0,6.5,1.1,8.5,3.4s3.3,5.8,3.3,10.5v21a5.61,5.61,0,0,0,.3,2.4,2.81,2.81,0,0,0,1.6,1.4,13.89,13.89,0,0,0,1.9.6c.6.1,1.1.2,2.1.3Z"/><path class="cls-1" d="M226.7,38a22.54,22.54,0,0,1,3.8,6.8,26.63,26.63,0,0,1,1.4,8.8,23.13,23.13,0,0,1-1.6,8.9,21.83,21.83,0,0,1-4.3,6.9,20.13,20.13,0,0,1-6.2,4.4,21.54,21.54,0,0,1-13.4.8c-1.6-.6-2.9-1.8-3.9-1.8H202V84.9a4.87,4.87,0,0,0,.6,2.5,3.35,3.35,0,0,0,1.8,1.5,10.3,10.3,0,0,0,2.7.7c1.2.2,2.9.4,2.9.4v2.7H187V90c1-.1,1.8-.1,2.6-.2a12.4,12.4,0,0,0,2.2-.4,2.83,2.83,0,0,0,1.7-1.5,6.25,6.25,0,0,0,.4-2.5V41.7a5.19,5.19,0,0,0-.5-2.4,4.94,4.94,0,0,0-1.6-1.9,7.87,7.87,0,0,0-2.2-.8,21.87,21.87,0,0,0-2.7-.4V33.4l14.3-.9.7.5v4.7l.3.1a17.43,17.43,0,0,1,5.4-4.2,13.93,13.93,0,0,1,6.4-1.7,14.73,14.73,0,0,1,7,1.6,19.6,19.6,0,0,1,5.7,4.5m-6.8,29.7a20.44,20.44,0,0,0,2.5-6,35.72,35.72,0,0,0,.8-7.7,27,27,0,0,0-.7-6.3,15.55,15.55,0,0,0-2.1-5.6,12.56,12.56,0,0,0-3.7-3.9,9.84,9.84,0,0,0-5.5-1.5,9.71,9.71,0,0,0-5.3,1.4,15,15,0,0,0-3.8,3.2V65.7c0,.8.7,1.5,1.3,2.3a12.86,12.86,0,0,0,1.9,2.1,11.65,11.65,0,0,0,2.8,1.7,9.88,9.88,0,0,0,3.7.6,8.92,8.92,0,0,0,4.5-1.2,10.9,10.9,0,0,0,3.6-3.5"/><path class="cls-1" d="M275,73.6l-13.4.9-.6-.6v-5h-.1c-.7,0-1.4,1.3-2.3,2.1a12.7,12.7,0,0,1-2.9,2.1,19.09,19.09,0,0,1-3.6,1.7,16.67,16.67,0,0,1-5,.5c-3.6,0-6.4-1.2-8.3-3.6s-2.9-5.9-2.9-10.4V41.6a4.63,4.63,0,0,0-.6-2.5,4.85,4.85,0,0,0-1.7-1.8,6.49,6.49,0,0,0-2.1-.7,10.32,10.32,0,0,0-2.6-.3V33.5l14.1-.9.9.6V61.8c0,3,.6,5.2,1.9,6.7a6.16,6.16,0,0,0,4.8,2.3,11,11,0,0,0,7.1-2.4,8.55,8.55,0,0,0,1.9-1.9c.6-.7,1.3-1.3,1.3-1.8V41.3a5.34,5.34,0,0,0-.5-2.5,5.48,5.48,0,0,0-1.6-1.8,6.42,6.42,0,0,0-2.4-.6c-1-.1-1.5-.1-3.5-.2V33.4l15.2-.9.8.6V65.9a4.5,4.5,0,0,0,.6,2.4,5.17,5.17,0,0,0,1.6,1.7,3.82,3.82,0,0,0,1.6.6,11.49,11.49,0,0,0,2.1.2v2.8Z"/><path class="cls-1" d="M293,74H273V71.7a15.38,15.38,0,0,1,1.9-.2c.7-.1,1.3-.2,1.7-.3a3.52,3.52,0,0,0,1.8-1.3,4.27,4.27,0,0,0,.6-2.4v-48a6.81,6.81,0,0,0-.7-2.8,5.1,5.1,0,0,0-1.7-2.1,8.17,8.17,0,0,0-2.6-.9c-1.3-.3-3-.4-3-.5V10.4l15.5-.9.5.6V66.8a5.46,5.46,0,0,0,.4,2.4,3.41,3.41,0,0,0,1.7,1.4,6.36,6.36,0,0,0,1.8.6c.6.1,1,.2,2,.3V74Z"/><path class="cls-1" d="M318.5,54.2a11,11,0,0,1,2.6,3.5,11.42,11.42,0,0,1,.9,4.8,11.67,11.67,0,0,1-4.3,9.4,16.83,16.83,0,0,1-11.1,3.6,15.88,15.88,0,0,1-6.6-1.3,15.25,15.25,0,0,1-4.3-2.7l-.8,2.5h-3.1l-.5-14h2.9a18.78,18.78,0,0,0,1.4,3.9,18.35,18.35,0,0,0,2.6,4,14.82,14.82,0,0,0,3.9,3.1,10.72,10.72,0,0,0,5.1,1.3,9.54,9.54,0,0,0,6.2-1.8,6.32,6.32,0,0,0,2.2-5.2,5.56,5.56,0,0,0-.7-3,6,6,0,0,0-2-2.2,17.93,17.93,0,0,0-3.4-1.7q-2-.75-4.5-1.5a40.6,40.6,0,0,1-4.4-1.6,17.73,17.73,0,0,1-4.1-2.4,13.1,13.1,0,0,1-3-3.6,10,10,0,0,1-1.2-5,11.45,11.45,0,0,1,3.8-8.6c2.5-2.3,5.9-3.5,10.1-3.5a22,22,0,0,1,5,.6,14.59,14.59,0,0,1,4.1,1.6l1-2.2h3l.6,13H317a12.33,12.33,0,0,0-3.8-7.1,9.57,9.57,0,0,0-7.1-2.7,8.12,8.12,0,0,0-5.4,1.7,5.31,5.31,0,0,0-2,4.2,6.84,6.84,0,0,0,.6,3.1,5.46,5.46,0,0,0,1.9,2.1,13.59,13.59,0,0,0,3.2,1.6c1.3.5,2.8,1,4.7,1.7a40.31,40.31,0,0,1,5.2,2.1,10.63,10.63,0,0,1,4.2,2.3"/><path class="cls-1" d="M361.8,53.3a28.15,28.15,0,0,1-1.4,8.6,19.47,19.47,0,0,1-3.9,7.1,19,19,0,0,1-6.7,5,21.28,21.28,0,0,1-8.6,1.6,19.31,19.31,0,0,1-7.5-1.5,18.13,18.13,0,0,1-6.3-4.3,20.74,20.74,0,0,1-4.3-6.8,23.81,23.81,0,0,1-1.6-9.1c0-6.5,1.9-11.7,5.6-15.8a19.24,19.24,0,0,1,14.8-6.2c5.8,0,10.6,1.9,14.3,5.8s5.6,9.2,5.6,15.6m-8.7.1a38.55,38.55,0,0,0-.6-6.6,21.53,21.53,0,0,0-1.9-5.9,13.11,13.11,0,0,0-3.5-4.2,9.23,9.23,0,0,0-5.3-1.6,9,9,0,0,0-5.5,1.6,11.48,11.48,0,0,0-3.7,4.4,19.77,19.77,0,0,0-1.9,5.8,34.81,34.81,0,0,0-.5,6.3,41.83,41.83,0,0,0,.6,7.4,19.12,19.12,0,0,0,2.1,6.1,11.48,11.48,0,0,0,3.6,4.2,9,9,0,0,0,5.3,1.5c3.5,0,6.3-1.7,8.3-5.1s3-7.9,3-13.9"/><path class="cls-1" d="M561.6,72.3a3.41,3.41,0,0,1-1.1,2.5,3.58,3.58,0,0,1-2.5,1.1,3.81,3.81,0,0,1-2.6-1.1,3.41,3.41,0,0,1-1.1-2.5,3.76,3.76,0,0,1,3.7-3.7,3.41,3.41,0,0,1,2.5,1.1,3.27,3.27,0,0,1,1.1,2.6"/><path class="cls-1" d="M574.8,76a11.06,11.06,0,0,1-8.9-3.8c-2.1-2.5-3.2-5.9-3.2-10.1a14.4,14.4,0,0,1,.9-5.1,16.1,16.1,0,0,1,2.5-4.4,10.49,10.49,0,0,1,3.9-3,11.36,11.36,0,0,1,5.2-1.2,10.24,10.24,0,0,1,6.3,1.8,5.94,5.94,0,0,1,2.4,5,4.75,4.75,0,0,1-.6,2.4,2.18,2.18,0,0,1-2.1,1,3.46,3.46,0,0,1-2.4-.8,2.27,2.27,0,0,1-.9-1.8,11.34,11.34,0,0,1,.3-2.5c.2-.8.3-1.5.4-1.8a2.59,2.59,0,0,0-1.4-1.1,6.35,6.35,0,0,0-4.4.2,5.82,5.82,0,0,0-2.2,2,10,10,0,0,0-1.6,3.6,21.18,21.18,0,0,0-.6,5.4,13.28,13.28,0,0,0,2.2,8,6.71,6.71,0,0,0,5.7,3.1,7.5,7.5,0,0,0,4.3-1.2,11.89,11.89,0,0,0,3.2-3.7l1.7,1.1a13.57,13.57,0,0,1-4.6,4.9,10.33,10.33,0,0,1-6.1,2"/><path class="cls-1" d="M609.7,62a17,17,0,0,1-.9,5.4,12.24,12.24,0,0,1-2.5,4.5A10.13,10.13,0,0,1,602,75a13.33,13.33,0,0,1-5.4,1,13.19,13.19,0,0,1-4.8-.9,11.79,11.79,0,0,1-4-2.7,12.81,12.81,0,0,1-2.8-4.3,14.84,14.84,0,0,1-1-5.7,14.11,14.11,0,0,1,3.6-10,12.15,12.15,0,0,1,9.4-3.9,12,12,0,0,1,9.1,3.7,13.61,13.61,0,0,1,3.6,9.8m-5.5.1a21.23,21.23,0,0,0-.4-4.2,14.61,14.61,0,0,0-1.2-3.7,7.1,7.1,0,0,0-2.2-2.6,5.29,5.29,0,0,0-3.4-1,5.78,5.78,0,0,0-3.5,1,7.81,7.81,0,0,0-2.4,2.7,10.74,10.74,0,0,0-1.2,3.7,28,28,0,0,0-.3,4,22.88,22.88,0,0,0,.4,4.7,14.17,14.17,0,0,0,1.3,3.8,8.68,8.68,0,0,0,2.3,2.7,6,6,0,0,0,3.4,1,6.06,6.06,0,0,0,5.3-3.2c1.3-2.2,1.9-5.2,1.9-8.9"/><path class="cls-1" d="M654,75H641V73.6s.8-.1,1.3-.1a3.59,3.59,0,0,0,1.1-.2,2.55,2.55,0,0,0,1.2-.8A3.31,3.31,0,0,0,645,71V57.4a6.38,6.38,0,0,0-1.3-4.2,3.93,3.93,0,0,0-3.2-1.5,6.9,6.9,0,0,0-2.5.4,7,7,0,0,0-2.1,1.1,4.89,4.89,0,0,0-1.2,1.3c-.3.5-.7.8-.7,1.1V70.7a2.39,2.39,0,0,0,.3,1.5,2,2,0,0,0,1.1.9,8.4,8.4,0,0,0,1.2.4,5.85,5.85,0,0,0,1.4.2v1.4H625V73.7a10.87,10.87,0,0,0,1.3-.1,3.59,3.59,0,0,0,1.1-.2,2.55,2.55,0,0,0,1.2-.8,3.31,3.31,0,0,0,.4-1.5V57.4a6.38,6.38,0,0,0-1.3-4.2,3.93,3.93,0,0,0-3.2-1.5,6.05,6.05,0,0,0-2.4.4,7,7,0,0,0-2.1,1.1,8,8,0,0,0-1.3,1.3c-.4.5-.8.9-.8,1.1V70.5a3.34,3.34,0,0,0,.3,1.5,2,2,0,0,0,1.1.9,5.64,5.64,0,0,0,1.2.4,3.32,3.32,0,0,0,1.4.2v1.4h-13V73.5a10.87,10.87,0,0,0,1.3-.1,5,5,0,0,0,1.2-.2,1.88,1.88,0,0,0,1.1-.8,3.31,3.31,0,0,0,.4-1.5V54.6a2.41,2.41,0,0,0-.4-1.5,3.1,3.1,0,0,0-1.1-1.2,3.7,3.7,0,0,0-1.1-.5,6.12,6.12,0,0,1-1.4-.3V49.4l8.6-.6.4.4v3.7c.4,0,1-.9,1.6-1.5a7.34,7.34,0,0,1,1.8-1.4,9.86,9.86,0,0,1,2.3-1.1,9.48,9.48,0,0,1,3-.4,7.44,7.44,0,0,1,4.4,1.4,7.52,7.52,0,0,1,2.6,3.3c.6-.6,1.2-1.2,1.7-1.6a10.49,10.49,0,0,1,1.9-1.5,8.81,8.81,0,0,1,2.4-1.1,9.48,9.48,0,0,1,3-.4,6.66,6.66,0,0,1,5.3,2.2c1.3,1.4,2,3.7,2,6.7V70.7a3.42,3.42,0,0,0,.2,1.5,1.79,1.79,0,0,0,1,.9,6.47,6.47,0,0,0,1.3.4,7.1,7.1,0,0,0,1.4.2V75Z"/><path class="cls-1" d="M661.6,72.3a3.41,3.41,0,0,1-1.1,2.5,3.58,3.58,0,0,1-2.5,1.1,3.81,3.81,0,0,1-2.6-1.1,3.41,3.41,0,0,1-1.1-2.5,3.76,3.76,0,0,1,3.7-3.7,3.41,3.41,0,0,1,2.5,1.1,3.27,3.27,0,0,1,1.1,2.6"/><path class="cls-1" d="M687,74.9c0,.3-1.4.5-2,.7a6,6,0,0,1-2,.3,5.62,5.62,0,0,1-3.3-1,5.09,5.09,0,0,1-1.5-2.9H678a14.83,14.83,0,0,1-3.7,2.9,9.88,9.88,0,0,1-4.7,1,6.81,6.81,0,0,1-4.8-1.8,6.11,6.11,0,0,1-1.9-4.7,7.66,7.66,0,0,1,.4-2.7,5.71,5.71,0,0,1,1.3-2.1,6.07,6.07,0,0,1,1.7-1.4c.7-.4,1.4-.7,2-1,.8-.3,2.3-.9,4.7-1.7a36.06,36.06,0,0,0,4.8-1.9V56a7.77,7.77,0,0,0-.1-1.3,6.36,6.36,0,0,0-.6-1.8,5.93,5.93,0,0,0-1.5-1.7,4.15,4.15,0,0,0-2.7-.7,5.09,5.09,0,0,0-2.2.4,4.89,4.89,0,0,0-1.5.9,13.7,13.7,0,0,0,.2,1.6,6.8,6.8,0,0,1,.3,1.9,2.46,2.46,0,0,1-.8,1.7,3.37,3.37,0,0,1-2.3.8,2.08,2.08,0,0,1-1.9-.9,3.7,3.7,0,0,1-.6-2.1,3.52,3.52,0,0,1,.9-2.3,10.72,10.72,0,0,1,2.2-2,13.18,13.18,0,0,1,2.9-1.3,12.57,12.57,0,0,1,3.3-.5,20.15,20.15,0,0,1,3.8.3,6.72,6.72,0,0,1,3,1.3,5.51,5.51,0,0,1,2,2.7,10.75,10.75,0,0,1,.7,4.3c0,2.5,0,4.8-.1,6.7s-.1,4.1-.1,6.4a2.54,2.54,0,0,0,.4,1.6,2.17,2.17,0,0,0,1.1,1,2.43,2.43,0,0,0,1.1.3h1.6v1.6Zm-8.8-14.1c-1.5.4-2.8.9-3.9,1.3a15.1,15.1,0,0,0-3.1,1.6,7,7,0,0,0-2.1,2.1,5.47,5.47,0,0,0-.8,2.9,4.26,4.26,0,0,0,1.1,3.2,4.1,4.1,0,0,0,2.9,1,6.29,6.29,0,0,0,3.3-.9,10,10,0,0,0,2.4-2.2Z"/><path class="cls-1" d="M705.9,52.5a4,4,0,0,1-.7,2.4,2.12,2.12,0,0,1-2,1,3.2,3.2,0,0,1-2.3-.8,2.46,2.46,0,0,1-.8-1.7,4.1,4.1,0,0,1,.1-1.1c.1-.3.1-.6.2-1a5,5,0,0,0-2.7,1c-1.1.7-2.7,1.6-2.7,2.9V70.4c0,.6-.1,1.1.2,1.5a1.79,1.79,0,0,0,1,.9,6.91,6.91,0,0,0,1.8.4,9.2,9.2,0,0,0,1.9.2v1.4h-14V73.4a10.53,10.53,0,0,1,1.2-.1,3.59,3.59,0,0,0,1.1-.2,2.14,2.14,0,0,0,1.2-.8,3.33,3.33,0,0,0,.5-1.5V54.7a4.94,4.94,0,0,0-.5-1.6,4.73,4.73,0,0,0-1.1-1.3,2.34,2.34,0,0,0-1-.5c-.5-.1-1.3-.2-1.3-.2V49.4l8.7-.6.3.4v3.7h-.2c1.1-1,2.3-2.6,3.7-3.3a8.16,8.16,0,0,1,3.7-1.1,3.69,3.69,0,0,1,2.7,1.1,4,4,0,0,1,1,2.9"/><path class="cls-1" d="M65.5,46.2a9.44,9.44,0,0,0-2.9-3.6,7.27,7.27,0,0,0-4.5-1.3,8.59,8.59,0,0,0-4.1.8,9,9,0,0,0-2.9,2.4v24a5.34,5.34,0,0,0,.9,2.2,6.88,6.88,0,0,0,1.3,2.1,9.76,9.76,0,0,0,2.1,1.6,6.56,6.56,0,0,0,3.1.6c2.8,0,5-1.5,6.6-4.6s2.4-7.4,2.5-12.9a39.64,39.64,0,0,0-.5-6.1,18.69,18.69,0,0,0-1.6-5.2"/><path class="cls-1" d="M72.5,0H18.9A18.69,18.69,0,0,0,0,18.6V91H72.5A18.46,18.46,0,0,0,91,72.2V18.6A18.36,18.36,0,0,0,72.5,0M18.6,21.5A7.64,7.64,0,0,1,24,19.4a7.64,7.64,0,0,1,5.4,2.1,6.72,6.72,0,0,1,2.3,5,6.56,6.56,0,0,1-2.3,5A7.64,7.64,0,0,1,24,33.6a7.64,7.64,0,0,1-5.4-2.1,6.72,6.72,0,0,1-2.3-5,6.56,6.56,0,0,1,2.3-5M82.1,56.7A20.8,20.8,0,0,1,76,72.1c-4.1,4.1-9.2,6.1-15.5,6.1a36.13,36.13,0,0,1-6.2-.5,29.42,29.42,0,0,1-4.4-1.3c-1.2-.6-2.2-1.1-3-1.6s-1.4-1-1.8-1.3l-4,3.6-2,1.7H12.9V76.3c1-.1,1.4-.1,2-.2a7.09,7.09,0,0,0,1.7-.4,2.85,2.85,0,0,0,1.8-1.3,3.92,3.92,0,0,0,.6-2.3V49.6a4.81,4.81,0,0,0-.7-2.4,6.09,6.09,0,0,0-1.6-1.6,10.91,10.91,0,0,0-2.1-.9,23.81,23.81,0,0,0-2.6-.5V41.4l19.2-1,.8.6V71.8a8.22,8.22,0,0,0,.2,2.3,3.39,3.39,0,0,0,1.5,1.4c.5.2,1.1.4,1.7.6l1.4.3c.1-1.5.1-3,.2-4.7.1-2.3,0-5.5,0-9.5V23.6a7.1,7.1,0,0,0-.5-2.9,5,5,0,0,0-1.5-2,6.14,6.14,0,0,0-2.3-.9,12.82,12.82,0,0,0-2.7-.5V14.2l20.4-1.1.6.7V41h.2a20.73,20.73,0,0,1,6.2-4.5,16.3,16.3,0,0,1,6.3-1.6c5.8,0,10.4,2,13.7,5.9s5,9.3,4.7,15.9"/><path class="cls-1" d="M404.9,53.7A22.1,22.1,0,0,1,399,69.3c-3.9,4.2-8.4,6.3-13.6,6.3a21.77,21.77,0,0,1-6.7-1,28.77,28.77,0,0,1-6.2-2.8l-3.1,4.9-2.6-.6c.1-2.1.1-4.6.1-7.5s-.1-5.7-.1-8.4V19.3a6.92,6.92,0,0,0-.5-2.8,4.91,4.91,0,0,0-1.6-2.1,6.71,6.71,0,0,0-2.8-.8c-1.2-.2-2.1-.3-3.1-.4V10.4l15.3-.9.7.6V37.4l.4.1a17.22,17.22,0,0,1,5.7-4.1,15,15,0,0,1,6-1.4,16,16,0,0,1,12.7,6c3.6,4.1,5.3,9.3,5.3,15.7m-8.7.3a27,27,0,0,0-.7-6.3,16.29,16.29,0,0,0-2.1-5.6,11.52,11.52,0,0,0-3.7-3.9,9.84,9.84,0,0,0-5.5-1.5,11.07,11.07,0,0,0-5.2,1.2,12.3,12.3,0,0,0-4,3.1V65a5.35,5.35,0,0,0,1.1,2.3,15.1,15.1,0,0,0,2,2.6,9.72,9.72,0,0,0,2.9,1.9,9.37,9.37,0,0,0,3.9.7c3.4,0,6.1-1.6,8.2-4.9s3.1-7.9,3.1-13.6"/><path class="cls-1" d="M443,73.6a21.9,21.9,0,0,1-3.3,1.2,11.06,11.06,0,0,1-3.3.4,8.27,8.27,0,0,1-5.2-1.6,7.41,7.41,0,0,1-2.5-4.6h-.2a20.7,20.7,0,0,1-5.8,4.7,16,16,0,0,1-7.5,1.6,10.5,10.5,0,0,1-7.6-2.8,9.8,9.8,0,0,1-3-7.4,11.76,11.76,0,0,1,.7-4.3,9,9,0,0,1,2-3.4,9.13,9.13,0,0,1,2.8-2.2,19.08,19.08,0,0,1,3.2-1.6c1.3-.5,4-1.4,7.8-2.6s6-2.3,8-3V43.9c0-.4-.3-1.1-.4-2.1a9.27,9.27,0,0,0-3.5-5.6,7,7,0,0,0-4.4-1.2,8.57,8.57,0,0,0-3.6.7,5.34,5.34,0,0,0-2.3,1.4,9.63,9.63,0,0,0,.4,2.5,11.28,11.28,0,0,1,.4,3,3.49,3.49,0,0,1-1.3,2.7,5.31,5.31,0,0,1-3.7,1.2,3.5,3.5,0,0,1-3.1-1.5,5.58,5.58,0,0,1-1-3.3A6.1,6.1,0,0,1,408,38a13.2,13.2,0,0,1,3.5-3.1,21.91,21.91,0,0,1,4.6-2,19.34,19.34,0,0,1,5.2-.8,35.77,35.77,0,0,1,6.1.5,11.4,11.4,0,0,1,4.8,2.1,9.11,9.11,0,0,1,3.2,4.2,18.59,18.59,0,0,1,1.1,6.8c0,4,0,7.5-.1,10.6s-.1,6.4-.1,10.1a4.18,4.18,0,0,0,2.4,4.2,2.82,2.82,0,0,0,1.8.4h2.6v2.6ZM428.7,51.5q-3.6,1.05-6.3,2.1a26,26,0,0,0-5,2.5,11.81,11.81,0,0,0-3.3,3.4,8.52,8.52,0,0,0-1.2,4.6q0,3.45,1.8,5.1a6.62,6.62,0,0,0,4.6,1.6,9.85,9.85,0,0,0,5.2-1.4,15.65,15.65,0,0,0,3.8-3.4Z"/><path class="cls-1" d="M461,74H441V71.7a13,13,0,0,1,1.8-.2c.7-.1,1.2-.2,1.7-.3a3.81,3.81,0,0,0,1.9-1.3,4.27,4.27,0,0,0,.7-2.4V41.9a5.66,5.66,0,0,0-.8-2.5,6.49,6.49,0,0,0-1.8-1.9,13.68,13.68,0,0,0-2.5-.9,14.46,14.46,0,0,0-2.9-.4V33.4l14.5-.9.5.6V66.8a4.29,4.29,0,0,0,.8,2.4,4,4,0,0,0,1.9,1.4,8.3,8.3,0,0,0,2.1.6,6.46,6.46,0,0,0,2.2.3V74Zm-5.7-57.7a6,6,0,0,1-1.6,4.2,5,5,0,0,1-7.6.1,5.7,5.7,0,0,1-1.6-3.9,5.51,5.51,0,0,1,1.6-4,5.2,5.2,0,0,1,7.6-.1,4.85,4.85,0,0,1,1.6,3.7"/><path class="cls-1" d="M490.4,38.3a7,7,0,0,1-1,3.8,3.53,3.53,0,0,1-3.2,1.6,4.89,4.89,0,0,1-3.6-1.2,3.73,3.73,0,0,1-1.2-2.7c0-.6.1-1.2.1-1.7l.3-1.5a8.77,8.77,0,0,0-4.5,1.6,12.39,12.39,0,0,0-4.3,4.5V66.8a5.46,5.46,0,0,0,.4,2.4,3.41,3.41,0,0,0,1.7,1.4,9.76,9.76,0,0,0,2.8.6c1.1.1,2,.2,3,.3v2.3h-22V71.5a15.38,15.38,0,0,1,1.9-.2c.7-.1,1.2-.2,1.7-.3a3.52,3.52,0,0,0,1.8-1.3,4.27,4.27,0,0,0,.6-2.4V41.9a6.32,6.32,0,0,0-.7-2.6,5.51,5.51,0,0,0-1.7-2,5.76,5.76,0,0,0-2.1-.7,9,9,0,0,0-2.5-.3V33.5l14.1-.9.9.6V39a21.93,21.93,0,0,1,5.8-5.2,11.76,11.76,0,0,1,5.8-1.8,5.8,5.8,0,0,1,4.3,1.7,6.46,6.46,0,0,1,1.6,4.6"/><path class="cls-1" d="M523.8,64.6a21.42,21.42,0,0,1-7,7.9,17.26,17.26,0,0,1-10,2.9,20.66,20.66,0,0,1-8.8-1.8,16.68,16.68,0,0,1-6.2-4.8,21.13,21.13,0,0,1-3.6-7,29.6,29.6,0,0,1-1.2-8.5,23.8,23.8,0,0,1,1.3-7.9,22.63,22.63,0,0,1,3.8-7,18.35,18.35,0,0,1,5.9-4.8,17.44,17.44,0,0,1,8-1.8,20.5,20.5,0,0,1,7.8,1.4,12.15,12.15,0,0,1,5.2,3.9,15.48,15.48,0,0,1,3,5.5,24.92,24.92,0,0,1,1.1,6.9v2.4H495.5a33.44,33.44,0,0,0,.8,7.6,15.73,15.73,0,0,0,2.5,5.9,11.55,11.55,0,0,0,4.3,3.9,13.92,13.92,0,0,0,6.3,1.4,12,12,0,0,0,6.4-1.7,18.16,18.16,0,0,0,5.2-6.3ZM514.4,49a26,26,0,0,0-.4-5,16.07,16.07,0,0,0-1.3-4.5,7.88,7.88,0,0,0-2.6-3.1,7.28,7.28,0,0,0-4.3-1.2,9.09,9.09,0,0,0-7.3,3.7c-1.9,2.4-3,6.2-3.2,10.2h19.1Z"/><path class="cls-1" d="M549,54.2a11,11,0,0,1,2.6,3.5,11.42,11.42,0,0,1,.9,4.8,11.67,11.67,0,0,1-4.3,9.4,16.83,16.83,0,0,1-11.1,3.6,15.88,15.88,0,0,1-6.6-1.3,15.25,15.25,0,0,1-4.3-2.7l-.8,2.5h-3.1l-.5-14h2.9a18.78,18.78,0,0,0,1.4,3.9,18.35,18.35,0,0,0,2.6,4,14.82,14.82,0,0,0,3.9,3.1,10.72,10.72,0,0,0,5.1,1.3,9.54,9.54,0,0,0,6.2-1.8,6.32,6.32,0,0,0,2.2-5.2,5.56,5.56,0,0,0-.7-3,6,6,0,0,0-2-2.2,17.93,17.93,0,0,0-3.4-1.7q-1.95-.75-4.5-1.5a40.6,40.6,0,0,1-4.4-1.6,17.73,17.73,0,0,1-4.1-2.4,13.1,13.1,0,0,1-3-3.6,10,10,0,0,1-1.2-5,11.45,11.45,0,0,1,3.8-8.6c2.5-2.3,5.9-3.5,10.1-3.5a22,22,0,0,1,5,.6,14.59,14.59,0,0,1,4.1,1.6l1-2.2h3l.6,13h-2.9a12.33,12.33,0,0,0-3.8-7.1,9.57,9.57,0,0,0-7.1-2.7,8.12,8.12,0,0,0-5.4,1.7,5.31,5.31,0,0,0-2,4.2,6.84,6.84,0,0,0,.6,3.1,5.46,5.46,0,0,0,1.9,2.1,13.59,13.59,0,0,0,3.2,1.6c1.3.5,2.8,1,4.7,1.7a40.31,40.31,0,0,1,5.2,2.1,10,10,0,0,1,4.2,2.3"/><path class="cls-1" d="M520.4,63.6a11.75,11.75,0,0,0,1.4-3.5l1.1,4.3Z"/></svg>