<svg width="52" height="60" viewBox="0 0 52 60" fill="none" xmlns="http://www.w3.org/2000/svg">
<path d="M51.0519 24.4433C50.9972 26.7866 50.9619 30.6166 50.8077 34.4433C50.6727 37.8566 49.5097 40.9566 47.7844 43.8366C44.5747 49.1966 40.0671 53.1066 34.7916 56.0766C32.3402 57.46 29.7635 58.6233 27.1868 59.74C26.4832 60.0466 25.4743 60.09 24.7611 59.8133C17.9081 57.1633 11.7073 53.42 6.74985 47.7266C2.77876 43.1666 0.751451 37.8166 0.783579 31.6333C0.815708 25.3566 0.790005 19.08 0.790005 12.8033C0.790005 12.56 0.790005 12.3133 0.793218 12.07C0.84141 10.0633 1.67996 9.22666 3.6141 8.99666C5.53217 8.76999 7.46631 8.52666 9.34262 8.06666C14.4543 6.82 19.0069 4.28666 23.3314 1.26667C25.741 -0.416666 26.0077 -0.433333 28.4302 1.28333C32.8061 4.38666 37.4615 6.87333 42.6631 8.08999C44.4944 8.51999 46.3772 8.73333 48.2438 8.98666C50.194 9.25333 51.039 10.1633 51.0486 12.1967C51.0615 15.7833 51.0519 19.37 51.0519 24.4433ZM3.68478 12.13C3.68478 12.5033 3.68478 12.7967 3.68478 13.09C3.66229 19.2567 3.65587 25.4266 3.61089 31.5933C3.56912 37.1366 5.44864 41.86 9.07916 45.9033C13.2109 50.5066 18.2358 53.68 23.7555 56.1433C25.0535 56.7233 26.1169 56.7533 27.431 56.15C32.4719 53.84 37.2527 51.1333 41.1691 47.0366C44.9796 43.0533 47.5434 38.4233 47.6013 32.6366C47.6655 26.0067 47.6559 19.3767 47.7073 12.7467C47.7105 12.12 47.4663 11.9767 46.9362 11.92C45.5579 11.7667 44.1699 11.6367 42.8141 11.3567C36.8125 10.1233 31.447 7.37 26.4543 3.78333C25.9049 3.39 25.5354 3.35666 24.9635 3.77C18.5828 8.35666 11.7073 11.6133 3.69442 12.13H3.68478ZM24.1249 42.3333C24.1828 43.1833 24.8029 43.77 25.5515 43.8C26.2743 43.83 26.9394 43.28 27.0454 42.52C27.1 42.12 27.0808 41.7066 27.0872 41.3C27.0936 40.81 27.0872 40.3166 27.0872 39.8333C27.3956 39.8166 27.5274 39.81 27.6559 39.8C30.6374 39.5933 32.8735 37.1833 32.8832 34.1633C32.896 31.13 30.7081 28.7166 27.6976 28.5133C26.5249 28.4333 25.3426 28.5 24.1635 28.4633C23.7523 28.45 23.3153 28.4133 22.9362 28.26C21.8567 27.8266 21.2109 26.62 21.4004 25.52C21.6125 24.2933 22.647 23.3766 23.9129 23.3633C25.9306 23.3433 27.945 23.3633 29.9627 23.3533C31.039 23.35 31.7266 22.7566 31.7458 21.84C31.7651 20.8967 31.0486 20.2633 29.9434 20.2533C29.0374 20.2467 28.1314 20.2533 27.1868 20.2533C27.1868 19.46 27.1964 18.7867 27.1868 18.11C27.1707 17.0833 26.5603 16.3567 25.7153 16.34C24.8414 16.3233 24.2149 17.0633 24.2021 18.14C24.1956 18.8333 24.2021 19.5267 24.2021 20.2067C24.0061 20.2333 23.929 20.25 23.8519 20.2567C20.6679 20.4867 18.3964 22.96 18.4928 26.09C18.5892 29.3066 20.8768 31.54 24.1314 31.59C25.1788 31.6066 26.2262 31.5833 27.2735 31.5966C28.8414 31.6133 29.9916 32.6833 30.0077 34.12C30.0237 35.5866 28.8414 36.7 27.2446 36.7066C25.227 36.7133 23.2125 36.7033 21.1948 36.71C20.1314 36.7133 19.4567 37.3366 19.4663 38.27C19.476 39.1966 20.1539 39.8 21.227 39.81C22.1394 39.82 23.0551 39.81 24.1121 39.81C24.1121 40.72 24.0671 41.5333 24.1249 42.3366V42.3333Z" fill="#AE0C79"/>
</svg>
