<svg width="32" height="72" viewBox="0 0 32 72" fill="none" xmlns="http://www.w3.org/2000/svg">
<path d="M16.5348 20.9769C17.1401 20.8089 17.6336 20.7129 18.1001 20.5289C19.0948 20.1369 20.0471 20.2609 20.9068 20.8289C22.2562 21.7209 23.5517 22.6889 24.8664 23.6369C25.2365 23.9049 25.5873 24.1969 25.942 24.4849C26.5627 24.9969 27.1989 25.2529 28.0586 25.2049C30.0211 25.0969 31.6018 26.8649 31.7483 29.1249C31.8562 30.7529 31.3974 32.2409 30.7883 33.7129C29.5314 36.7369 28.3054 39.7729 27.1025 42.8169C26.956 43.1849 26.9521 43.6849 27.0485 44.0769C28.2399 48.8049 27.6808 53.2769 25.3521 57.5289C25.1324 57.9329 25.0129 58.4409 24.9936 58.9049C24.9435 60.0689 24.9782 61.2329 24.9782 62.4569C25.2635 62.4729 25.5025 62.4769 25.7415 62.5049C26.3777 62.5769 26.7709 62.9449 26.7748 63.6129C26.7941 66.0289 26.7941 68.4449 26.7748 70.8569C26.7671 71.6089 26.3314 71.9849 25.5372 71.9889C23.7097 72.0009 21.8823 71.9889 20.0548 71.9889C15.5979 71.9889 11.1449 71.9889 6.68805 71.9889C5.45431 71.9889 5.15745 71.6769 5.15745 70.3689C5.15745 68.2929 5.15745 66.2129 5.15745 64.1369C5.15745 62.7889 5.43504 62.5009 6.73817 62.4929C6.9348 62.4929 7.13528 62.4929 7.4707 62.4929C7.27793 60.6889 7.80612 58.9369 6.91937 57.1689C5.07648 53.4889 3.43407 49.7049 1.65673 45.9889C0.299617 43.1529 0.1454 40.3249 0.7854 37.1889C3.11407 25.7809 5.22299 14.3169 7.4013 2.86494C7.67504 1.42894 8.39986 0.44494 9.79552 0.0969398C11.168 -0.24706 12.2321 0.34894 12.9531 1.49694C13.4466 2.28494 13.7126 3.22494 14.1174 4.07694C14.2293 4.31294 14.4297 4.58894 14.6533 4.66894C17.144 5.58494 18.5782 8.05694 18.1425 10.8249C17.6529 13.9209 17.1285 17.0129 16.6273 20.1089C16.5849 20.3569 16.5733 20.6129 16.5387 20.9769H16.5348ZM9.56805 62.4449H22.8808C22.8808 61.0409 22.8423 59.6889 22.9001 58.3449C22.9232 57.8329 23.0697 57.2689 23.3242 56.8289C25.6143 52.8649 26.1579 48.6969 24.8856 44.2569C24.7353 43.7369 24.7584 43.0569 24.9512 42.5569C26.2003 39.3329 27.5305 36.1449 28.8143 32.9369C29.0996 32.2209 29.4505 31.4929 29.5391 30.7409C29.6355 29.9449 29.6162 29.0609 29.3656 28.3129C28.9917 27.1889 27.8158 27.0209 27.0061 27.8729C26.6553 28.2409 26.3121 28.6409 26.0731 29.0889C24.9242 31.2409 23.6673 33.3529 22.7227 35.6009C21.6972 38.0449 20.263 40.1649 18.6823 42.2129C18.5165 42.4289 18.2929 42.7009 18.0654 42.7409C17.0861 42.9089 16.0953 43.0969 15.1083 43.0849C14.1637 43.0729 13.4813 42.4929 13.1806 41.5089C13.0148 40.9649 12.8374 40.4249 12.6524 39.8889C12.2977 38.8529 12.1396 37.7329 11.3454 36.8849C11.1758 36.7009 11.1642 36.2369 11.2413 35.9449C11.6346 34.4209 12.0702 32.9089 12.5136 31.4009C12.5984 31.1169 12.7256 30.8009 12.93 30.6049C14.2755 29.2929 15.6558 28.0169 17.0052 26.7089C17.6413 26.0889 17.9459 26.0689 18.7285 26.4849C19.6577 26.9809 20.5984 27.4969 21.5893 27.8009C23.062 28.2569 24.3652 27.7289 25.1517 26.4969C23.4746 25.2849 21.7974 24.0689 20.1165 22.8569C19.6384 22.5129 19.1411 22.4529 18.5589 22.6449C16.2032 23.4329 13.8514 24.2249 11.4688 24.9209C10.1001 25.3209 9.1748 26.1449 8.46154 27.3969C6.32564 31.1609 4.51359 35.0849 2.85962 39.0969C2.26588 40.5329 2.19648 41.8569 2.85191 43.2689C4.98781 47.8689 7.09672 52.4849 9.19407 57.1049C9.39841 57.5569 9.52949 58.0809 9.54877 58.5769C9.59889 59.8449 9.56419 61.1129 9.56419 62.4489L9.56805 62.4449ZM7.27793 69.7609H24.635V64.7449H7.27793V69.7609ZM4.28227 30.4609L4.37094 30.5289C4.51745 30.2609 4.6601 29.9929 4.81046 29.7249C5.99793 27.5689 7.00419 25.2809 8.88178 23.6129C9.00901 23.5009 9.03986 23.2449 9.07841 23.0489C9.45624 21.0889 9.83407 19.1329 10.1965 17.1689C10.8519 13.6289 11.5227 10.0889 12.128 6.54094C12.3594 5.17294 12.1666 3.82094 11.2606 2.72494C11.0293 2.44094 10.5242 2.20494 10.1965 2.26494C9.9266 2.31294 9.59889 2.80494 9.5295 3.14894C7.76371 12.2489 6.02877 21.3569 4.28612 30.4649L4.28227 30.4609ZM17.9382 28.9249C17.0823 29.7449 16.13 30.7409 15.089 31.6249C13.9015 32.6329 14.2601 34.2129 13.6509 35.4249C13.5931 35.5369 13.5546 35.6689 13.543 35.7929C13.5276 35.9369 13.5121 36.1009 13.5584 36.2369C14.0519 37.6449 14.5531 39.0529 15.0736 40.4489C15.143 40.6409 15.3126 40.8649 15.4861 40.9249C16.1685 41.1769 17.063 40.8209 17.5526 40.2529C20.0355 37.3409 21.0572 33.5969 22.8461 30.2929C22.8615 30.2609 22.8268 30.1969 22.8153 30.1489L22.7613 30.3489C21.1999 29.8889 19.6384 29.4249 17.9497 28.9289L17.9382 28.9249ZM14.2408 6.88094C13.2615 12.1329 12.2938 17.3409 11.2991 22.6689C12.2668 22.3529 13.1266 22.0929 13.9632 21.7809C14.1213 21.7209 14.2678 21.4529 14.3025 21.2569C14.9117 17.6529 15.5131 14.0529 16.0876 10.4449C16.3382 8.86094 15.5748 7.42494 14.2408 6.88094Z" fill="#AE0C79"/>
</svg>
