<svg width="59" height="61" viewBox="0 0 59 61" fill="none" xmlns="http://www.w3.org/2000/svg">
<path d="M49.4343 47.2534C48.6466 47.617 47.8717 47.9739 47.1128 48.3209C47.2704 51.3866 46.2125 52.9044 43.5084 53.4816C43.5406 55.2062 42.9297 56.6207 41.4152 57.4613C39.9072 58.2986 38.4282 58.0885 37.0231 57.0643C36.2867 58.7823 35.0617 59.7264 33.2804 59.7798C31.4991 59.8332 30.4027 58.5922 29.2773 57.3279C29.1969 57.458 29.1455 57.5314 29.1069 57.6114C27.7629 60.3469 24.6825 60.8673 22.5636 58.7023C19.9399 56.0235 17.3194 53.3448 14.7149 50.6494C13.387 49.275 12.1009 47.8572 10.7408 46.3994C10.5189 46.7663 10.4032 46.9898 10.2585 47.19C9.39033 48.3843 8.22315 48.8213 6.82769 48.5377C5.70875 48.3109 4.59945 48.0307 3.49015 47.7438C1.6767 47.2767 0.605984 45.5654 1.01433 43.6673C2.25224 37.9295 3.52874 32.205 4.79237 26.4739C4.92742 25.8668 5.0078 25.2396 5.22001 24.6625C5.42258 24.1121 5.6991 23.5616 6.06887 23.1213C6.35182 22.7844 6.45471 22.4808 6.45471 22.0605C6.44828 15.2685 6.44828 8.47659 6.44828 1.68464C6.44828 0.333593 6.76338 0.00333593 8.04952 0.00333593C19.3547 0.0100078 30.6663 0.0133437 41.9779 0C42.6049 0 43.0808 0.183476 43.5245 0.650506C46.3315 3.58946 49.1546 6.5184 51.9873 9.43066C52.4342 9.89102 52.6175 10.3881 52.6143 11.0352C52.595 14.6114 52.6111 18.1875 52.5982 21.7669C52.5982 22.1606 52.6658 22.4107 53.0355 22.6276C53.9133 23.1413 54.357 23.9986 54.5757 24.9994C55.6303 29.8132 56.6914 34.6236 57.7492 39.434C58.0643 40.8618 58.3987 42.2862 58.6817 43.7206C59.0418 45.5521 58 47.2701 56.2605 47.7304C55.1191 48.0307 53.9648 48.2975 52.8104 48.5511C51.5629 48.8246 50.5147 48.4176 49.4311 47.25L49.4343 47.2534ZM15.0236 25.7734C15.1555 25.7834 15.2487 25.7934 15.3452 25.7934C18.8306 25.7934 22.3193 25.8 25.8047 25.78C26.0394 25.78 26.2902 25.6066 26.5089 25.4698C27.3256 24.9461 28.0844 24.2789 28.9557 23.8986C30.9235 23.0346 32.8431 23.4816 34.6469 24.489C36.4861 25.5165 38.3124 26.574 40.0969 27.6982C41.7561 28.7423 43.2608 28.3287 44.7721 27.4146C44.2319 25.0061 45.5373 23.1914 47.7945 22.8144C48.444 22.7076 49.0742 22.4908 49.7205 22.3807C50.1835 22.3007 50.3475 22.1172 50.3411 21.6001C50.3121 18.5244 50.3282 15.452 50.325 12.3763C50.325 12.1795 50.3089 11.986 50.296 11.7258C50.0485 11.7258 49.8395 11.7258 49.6305 11.7258C47.3443 11.7258 45.0582 11.7258 42.7753 11.7258C41.666 11.7258 41.3059 11.3588 41.3027 10.2213C41.2995 7.84943 41.3027 5.47759 41.3027 3.10908C41.3027 2.87557 41.2834 2.64539 41.2738 2.39853H8.72153V22.0772C9.86941 22.354 10.9916 22.6576 12.1266 22.8878C13.6828 23.2047 14.6346 24.1421 15.0236 25.7767V25.7734ZM14.7471 28.1485C14.6989 28.342 14.6442 28.5322 14.6024 28.7223C13.5317 33.5527 12.4674 38.3832 11.3838 43.2069C11.2874 43.6406 11.3453 43.9275 11.67 44.2577C15.7728 48.441 19.8595 52.6409 23.9494 56.8342C24.9205 57.8283 25.943 57.9517 26.6921 57.1678C27.4445 56.3838 27.3191 55.3263 26.3577 54.3256C25.3996 53.3314 24.4317 52.344 23.4864 51.3366C22.9913 50.8095 22.9945 50.1423 23.4446 49.6653C23.8851 49.1949 24.5346 49.1949 25.0587 49.6686C25.2195 49.8154 25.3642 49.9755 25.5153 50.1323C27.5828 52.2773 29.6503 54.4256 31.7177 56.5673C31.8946 56.7508 32.0682 56.9476 32.274 57.0944C32.8495 57.508 33.4701 57.5481 34.0842 57.2011C34.6791 56.8642 35.0392 56.3038 34.9299 55.6199C34.8527 55.1395 34.618 54.6124 34.2932 54.2655C32.3512 52.1872 30.3641 50.159 28.3931 48.1107C28.2419 47.9539 28.0844 47.8005 27.9686 47.6203C27.6503 47.1333 27.7211 46.5328 28.1165 46.1359C28.5088 45.7455 29.1004 45.6988 29.5506 46.0391C29.721 46.1692 29.8689 46.3293 30.02 46.4861C32.663 49.2283 35.3061 51.9704 37.9491 54.7125C38.1259 54.896 38.3028 55.0861 38.5021 55.2429C39.1838 55.7834 40.1323 55.7166 40.7271 55.0995C41.3284 54.4757 41.3992 53.5049 40.8783 52.791C40.74 52.6009 40.5696 52.4307 40.4056 52.2606C37.8462 49.6019 35.2836 46.9465 32.7241 44.2877C32.5859 44.1443 32.4412 44.0109 32.3222 43.8541C31.9332 43.347 31.9621 42.7065 32.3865 42.2695C32.7981 41.8459 33.4379 41.8225 33.917 42.2228C34.0682 42.3496 34.2 42.4964 34.335 42.6398C36.8269 45.2251 39.322 47.8105 41.8107 50.3992C42.2737 50.8795 42.7882 51.1998 43.4634 51.083C44.1258 50.9663 44.6017 50.576 44.8139 49.9054C45.0486 49.1649 44.8396 48.5277 44.3155 47.984C40.9458 44.4912 37.5793 40.9919 34.2064 37.4991C32.6598 35.8979 31.0071 35.7711 29.1808 37.0021C28.0651 37.756 26.9301 38.5066 25.7211 39.0737C22.5636 40.5482 19.702 39.8376 17.5798 37.1756C17.0396 36.4984 17.0461 35.8946 17.6731 35.3308C19.9399 33.2925 21.7855 30.8573 23.734 28.5155C23.8144 28.4188 23.8691 28.2987 23.9655 28.1419H14.7471V28.1485ZM45.3219 29.7932C45.0486 29.9099 44.8364 29.9933 44.6306 30.09C42.7239 30.9807 40.8718 30.864 39.0712 29.7765C38.3028 29.3128 37.5407 28.8324 36.7562 28.3954C35.38 27.6248 34.0199 26.8075 32.5923 26.147C31.0714 25.4398 29.6245 25.8 28.377 26.9109C27.7468 27.4713 27.1423 28.0718 26.5892 28.7156C24.406 31.2676 22.2453 33.8463 20.0621 36.4316C20.0749 36.445 20.1521 36.5351 20.2421 36.6051C21.6119 37.7327 23.1167 37.7593 24.6118 37.0121C25.8594 36.3883 27.049 35.621 28.2259 34.8571C30.5795 33.3259 33.4187 33.5527 35.4636 35.5076C36.0906 36.1081 36.679 36.7486 37.2803 37.3724C40.0326 40.2279 42.785 43.0868 45.5438 45.9357C45.6756 46.0725 45.9296 46.2626 46.0421 46.2126C46.9328 45.8456 47.8009 45.4253 48.6851 45.0217C47.5566 39.911 46.444 34.8704 45.3219 29.7898V29.7932ZM56.492 44.3111C56.4695 44.181 56.4374 43.9842 56.3956 43.7874C55.058 37.726 53.7204 31.6646 52.386 25.6032C52.1609 24.5858 51.7269 24.2922 50.7591 24.5224C49.8362 24.7426 48.9134 24.9661 47.9906 25.1896C47.0357 25.4198 46.7784 25.8501 46.9939 26.8442C47.8684 30.8139 48.7398 34.7837 49.6144 38.7534C50.0935 40.9251 50.5726 43.0935 51.0613 45.2618C51.2285 46.0057 51.6754 46.3994 52.2735 46.2726C53.4471 46.0224 54.6175 45.7422 55.7782 45.432C56.2573 45.3052 56.4888 44.9049 56.492 44.3144V44.3111ZM12.7664 26.4906C12.7825 25.7533 12.4706 25.3697 11.8051 25.2129C10.8437 24.9861 9.87906 24.7726 8.91767 24.5524C7.90805 24.3189 7.53185 24.5691 7.30035 25.6132C6.85663 27.6281 6.41291 29.6397 5.96919 31.6546C5.06568 35.7411 4.15895 39.8243 3.25865 43.9108C3.05287 44.8448 3.33903 45.3085 4.24898 45.5321C5.15249 45.7556 6.05601 45.9657 6.96274 46.1759C8.04631 46.4261 8.43858 46.1592 8.68616 45.0217C9.79868 39.9777 10.9144 34.9338 12.0269 29.8899C12.2841 28.719 12.5382 27.5447 12.7697 26.4906H12.7664ZM48.4408 9.36394C46.8299 7.70265 45.1676 5.98799 43.5952 4.37006V9.36394H48.4408ZM18.2133 7.66596C16.7631 8.32981 15.7921 9.41398 15.6635 11.102C15.4834 13.4805 17.2969 15.4186 19.7341 15.5588C20.1489 15.5821 20.5862 15.6555 20.9656 15.8223C21.5701 16.0892 21.9624 16.5795 21.9688 17.3101C21.9752 18.0373 21.5926 18.5211 20.9977 18.8213C20.7277 18.9581 20.4158 19.0281 20.1135 19.0748C19.2293 19.2149 18.6248 18.6845 18.0107 18.1341C17.5123 17.6871 16.8564 17.7571 16.448 18.2242C16.03 18.7012 16.0107 19.3984 16.5123 19.8388C17.0654 20.3258 17.6731 20.7728 18.3161 21.1164C18.6763 21.3099 18.837 21.4633 18.8467 21.8903C18.866 22.6643 19.3451 23.1547 19.9785 23.1513C20.6344 23.148 21.1103 22.6142 21.0974 21.8203C21.091 21.44 21.1907 21.2665 21.5444 21.1264C23.3675 20.4092 24.4703 18.6345 24.2163 16.8831C23.9334 14.9116 22.3932 13.4338 20.4318 13.2503C20.0846 13.2169 19.7341 13.2069 19.3933 13.1369C18.538 12.9567 17.8981 12.2295 17.8853 11.4622C17.8724 10.7016 18.4448 10.0044 19.2968 9.77426C20.3161 9.49738 21.1553 9.87768 21.882 10.5982C22.3771 11.0886 23.0299 11.1587 23.4929 10.7383C23.972 10.3047 24.0652 9.58411 23.5668 9.08039C23.0813 8.58667 22.5025 8.14299 21.8852 7.84943C21.3096 7.57255 20.9367 7.35238 20.9881 6.59179C21.0331 5.96463 20.4865 5.52763 19.8852 5.53096C19.284 5.5343 18.8274 5.97464 18.7856 6.61514C18.7695 6.87534 18.7856 7.13554 18.7856 7.44579C18.5702 7.53252 18.3869 7.5959 18.21 7.67596L18.2133 7.66596ZM37.2192 10.7417C37.9973 10.7383 38.5053 10.288 38.5246 9.60413C38.5439 8.90025 38.0295 8.41988 37.2128 8.41654C34.5633 8.40987 31.9139 8.40987 29.2676 8.41654C28.4638 8.41654 27.9879 8.85021 27.9783 9.55075C27.9654 10.2847 28.4477 10.735 29.2773 10.7417C30.5924 10.7484 31.9074 10.7417 33.2225 10.7417C34.5569 10.7417 35.8913 10.745 37.2256 10.7417H37.2192ZM37.2192 15.3186C37.9941 15.3152 38.5053 14.8582 38.5278 14.1777C38.5471 13.4738 38.0359 12.9901 37.2192 12.9868C34.5698 12.9801 31.9203 12.9801 29.2741 12.9868C28.467 12.9868 27.9944 13.4204 27.9815 14.121C27.9686 14.8549 28.4509 15.3119 29.2773 15.3186C30.5924 15.3252 31.9074 15.3186 33.2225 15.3186C34.5569 15.3186 35.8913 15.3219 37.2256 15.3186H37.2192ZM29.3898 17.5636C29.0908 17.567 28.7564 17.6104 28.5024 17.7538C28.0201 18.024 27.8883 18.5111 28.0169 19.0515C28.139 19.5752 28.5892 19.8921 29.213 19.8921C31.8624 19.8988 34.5119 19.8955 37.1581 19.8921C37.978 19.8921 38.5053 19.4484 38.5278 18.7512C38.5504 18.0307 38.0263 17.5603 37.1613 17.557C35.8655 17.5503 34.5698 17.557 33.274 17.557C31.9782 17.557 30.6824 17.547 29.3866 17.5636H29.3898Z" fill="#AE0C79"/>
</svg>
