<svg width="82" height="73" viewBox="0 0 82 73" fill="none" xmlns="http://www.w3.org/2000/svg">
<path d="M21.2549 49.3215C21.0096 49.4878 20.7888 49.6217 20.5802 49.7758C17.73 51.8725 14.8717 53.9612 12.0296 56.0742C11.3345 56.5933 10.627 56.8731 9.79692 56.4392C8.99952 56.0214 8.83186 55.3117 8.83595 54.4803C8.85231 50.7167 8.84413 46.9571 8.84413 43.1935C8.84413 42.9055 8.84413 42.6176 8.84413 42.3377C8.02629 42.1796 7.27796 42.0903 6.55825 41.8876C2.70211 40.8007 0.0236635 37.3169 0.015485 33.3342C-0.000871898 25.1986 -0.00905036 17.059 0.015485 8.9234C0.0277527 4.02825 4.01066 0.033459 8.94227 0.0212921C23.2014 -0.00709735 37.4606 -0.00709735 51.7197 0.0212921C56.6513 0.0294033 60.6056 3.99581 60.6751 8.90312C60.7037 11.0648 60.6792 13.2264 60.6792 15.3881C60.6792 15.676 60.6792 15.964 60.6792 16.3533C61.0268 16.3533 61.313 16.3533 61.5993 16.3533C65.3123 16.3533 69.0253 16.3533 72.7383 16.3533C78.0135 16.3574 81.9923 20.2792 81.9964 25.5028C82.0045 33.3748 81.9964 41.2468 81.9964 49.1188C81.9964 54.2897 78.864 57.8627 73.7075 58.5724C73.5521 58.5927 73.3926 58.6211 73.1595 58.6576C73.1595 58.9577 73.1595 59.2457 73.1595 59.5336C73.1595 63.2972 73.1473 67.0568 73.1677 70.8204C73.1718 71.6883 72.9755 72.4143 72.1372 72.8199C71.3316 73.2092 70.6487 72.9172 69.974 72.4224C63.9383 67.9572 57.8985 63.5 51.8383 59.0632C51.4621 58.7874 50.9223 58.6089 50.4561 58.6089C43.9992 58.5805 37.5423 58.4913 31.0855 58.6211C25.5037 58.7346 21.3735 54.6709 21.3204 49.6014C21.3204 49.5324 21.2836 49.4594 21.2468 49.3215H21.2549ZM69.5774 67.6124V66.7161C69.5774 63.7799 69.5774 60.8436 69.5774 57.9114C69.5774 55.3644 69.9209 55.0278 72.5175 55.0197C76.1201 55.0075 78.3733 52.7932 78.3733 49.2323C78.3815 41.3887 78.3815 33.5411 78.3733 25.6975C78.3733 22.1772 76.1161 19.9588 72.5666 19.9588C58.6305 19.9588 44.6903 19.9588 30.7542 19.9588C27.2007 19.9588 24.9721 22.1772 24.968 25.7097C24.9639 33.5532 24.9639 41.4009 24.968 49.2445C24.968 52.7729 27.2007 54.967 30.7747 54.967C37.6078 54.967 44.445 54.9508 51.2781 54.9954C51.9487 54.9994 52.7257 55.2549 53.2695 55.6483C58.4547 59.416 63.5989 63.2364 68.7554 67.0406C68.9844 67.2109 69.2216 67.365 69.5733 67.6084L69.5774 67.6124ZM57.003 16.3533C57.0193 16.0086 57.0398 15.745 57.0398 15.4854C57.0398 13.4576 57.0439 11.4298 57.0398 9.40197C57.0316 5.79651 54.7948 3.58619 51.139 3.58619C37.2888 3.58619 23.4345 3.58619 9.58428 3.58619C5.84264 3.58619 3.63445 5.79245 3.63445 9.52363C3.63445 17.2577 3.63445 24.9959 3.63445 32.7299C3.63445 33.0747 3.63854 33.4235 3.67126 33.7682C3.8839 36.0475 5.42554 37.913 7.67052 38.4403C8.51699 38.639 9.42889 38.6147 10.3081 38.639C11.7516 38.6836 12.4263 39.3285 12.4304 40.7601C12.4345 43.96 12.4304 47.1639 12.4304 50.3638C12.4304 50.6193 12.4304 50.8748 12.4304 51.2642C12.7166 51.0736 12.8884 50.9681 13.0519 50.8465C15.5791 48.9849 18.0899 47.1072 20.6375 45.2781C21.1854 44.8847 21.3449 44.4669 21.3408 43.8221C21.3163 37.7387 21.3204 31.6593 21.3286 25.5758C21.3326 20.2508 25.291 16.3493 30.6724 16.3493C39.1167 16.3493 47.565 16.3493 56.0093 16.3493H56.9989L57.003 16.3533Z" fill="#AE0C79"/>
</svg>
