<svg width="73" height="73" viewBox="0 0 73 73" fill="none" xmlns="http://www.w3.org/2000/svg">
<path d="M3.02614e-06 36.4473C0.00811459 16.2993 16.3894 -0.0162101 36.5831 1.20866e-05C56.6593 0.0162343 73.0122 16.4331 73 36.5568C72.9878 56.6926 56.5822 73.0324 36.4047 73C16.2921 72.9675 -0.00810853 56.5993 3.02614e-06 36.4473ZM2.68493 36.4351C2.64843 55.0298 17.7197 70.2381 36.2425 70.303C55.0856 70.372 70.2988 55.265 70.3151 36.4716C70.3313 17.9377 55.2235 2.73345 36.7494 2.68884C17.8982 2.64829 2.72549 17.6822 2.68493 36.4391V36.4351ZM34.8675 52.4342C32.4584 52.5154 30.1628 52.5316 27.8754 52.6857C24.5902 52.9047 21.3131 53.2251 18.032 53.5009C17.0951 53.582 16.4502 53.1318 16.361 52.3329C16.2677 51.4812 16.8031 50.8688 17.8698 50.7999C23.2437 50.4511 28.6176 50.0171 33.9956 49.8428C39.9454 49.6481 45.8952 49.9279 51.8248 50.4714C52.8914 50.5687 53.9581 50.6904 55.0167 50.8485C55.9049 50.9824 56.3835 51.6029 56.2739 52.3694C56.1644 53.1237 55.5115 53.5779 54.6354 53.4968C54.1284 53.4481 53.6215 53.3914 53.1145 53.3427C53.0699 53.3386 53.0253 53.3711 52.8955 53.4116C52.8955 54.5026 52.9036 55.6179 52.8955 56.7372C52.8712 60.5737 50.535 63.8952 46.9903 65.1322C43.3238 66.4137 39.26 65.3147 36.8549 62.3744C35.5124 60.7319 34.8797 58.8258 34.8675 56.7088C34.8594 55.334 34.8675 53.9551 34.8675 52.4261V52.4342ZM45.2301 52.6897C45.2301 53.0061 45.2301 53.2048 45.2301 53.4035C45.2301 54.5026 45.2463 55.6016 45.222 56.6966C45.2017 57.5159 44.6339 58.0917 43.8998 58.108C43.1657 58.1242 42.5938 57.5605 42.533 56.7412C42.5086 56.3844 42.5249 56.0275 42.5249 55.6706C42.5249 54.6607 42.5249 53.655 42.5249 52.5681H37.5646C37.5646 54.024 37.5525 55.4516 37.5646 56.8791C37.589 59.8762 39.8075 62.4596 42.6871 62.8692C46.1142 63.3559 49.2088 61.6241 49.9023 58.5338C50.2957 56.7777 50.17 54.9041 50.2836 53.0264C48.5071 52.9087 46.9294 52.8033 45.226 52.6938L45.2301 52.6897ZM62.9417 26.7788C62.9538 32.8378 58.0585 37.7531 51.9951 37.7613C45.9277 37.7734 40.9999 32.8905 40.9715 26.8397C40.9431 20.7726 45.8993 15.7964 51.9667 15.8004C58.0058 15.8004 62.9254 20.7239 62.9417 26.7788ZM51.9545 18.5055C47.3593 18.5055 43.6848 22.1839 43.6808 26.7829C43.6808 31.3697 47.3634 35.0846 51.9383 35.1008C56.5173 35.117 60.2811 31.3494 60.2689 26.7585C60.2567 22.1879 56.5457 18.5055 51.9545 18.5055ZM10.0583 26.791C10.0543 20.6995 14.9699 15.7923 21.0698 15.7964C27.1088 15.8045 32.0366 20.732 32.0407 26.7707C32.0447 32.8419 27.1007 37.7694 21.0089 37.7613C14.9537 37.7531 10.0624 32.854 10.0583 26.791ZM29.3355 26.7991C29.3436 22.1839 25.6082 18.4487 21.0171 18.4731C16.4421 18.5014 12.7392 22.2082 12.7352 26.7667C12.7311 31.3535 16.4867 35.1089 21.0657 35.0968C25.6325 35.0846 29.3274 31.3738 29.3355 26.795V26.7991ZM52.7251 24.8078C52.7414 23.1167 51.3178 21.6729 49.6144 21.6567C47.919 21.6404 46.4833 23.0599 46.4752 24.7673C46.4671 26.4828 47.8623 27.8982 49.5738 27.9063C51.2813 27.9184 52.7089 26.5152 52.7251 24.8078ZM21.0657 33.4218C22.7813 33.4056 24.1684 31.9862 24.1481 30.2666C24.1278 28.543 22.7164 27.1519 21.0049 27.1682C19.2852 27.1884 17.9184 28.5917 17.9306 30.3234C17.9428 32.047 19.3501 33.438 21.0657 33.4218ZM41.9692 72.4646V71.6211H40.9025V72.4646H41.9692Z" fill="#AE0C79"/>
</svg>
