<svg width="67" height="67" viewBox="0 0 67 67" fill="none" xmlns="http://www.w3.org/2000/svg">
<path d="M20.1907 9.27336C19.7497 7.5798 19.2527 6.01651 18.9538 4.41601C18.7594 3.37382 18.8005 2.27207 18.8379 1.20383C18.8678 0.362632 19.4284 -0.0691325 20.1683 0.0090318C20.8746 0.083474 21.2819 0.664123 21.2072 1.49043C20.968 4.12196 21.7565 6.519 22.8403 8.88626C25.6356 8.30189 28.2141 7.33042 30.5797 5.8453C35.1612 2.97183 40.1053 1.09589 45.4792 0.392409C49.5675 -0.143575 53.6035 -0.0616883 57.419 1.78448C63.6299 4.78822 67.438 11.1791 66.9596 17.7821C66.4551 24.7424 61.8773 30.5117 55.1394 32.637C54.6312 32.7971 54.4518 32.9981 54.4032 33.5303C54.2649 34.9894 53.6595 36.2735 52.6917 37.3827C52.5085 37.5949 52.3105 37.7959 52.1087 37.9931C43.1921 46.8741 34.2756 55.7588 25.3553 64.6397C22.2012 67.7812 17.8513 67.7886 14.6861 64.6509C10.5679 60.5677 6.46087 56.4734 2.35761 52.3716C-0.792707 49.2227 -0.785233 44.8939 2.37629 41.7413C10.1904 33.9472 18.012 26.1606 25.8374 18.3776C26.0354 18.1804 26.2821 18.0315 26.5362 17.8342C25.7925 17.0191 25.1086 16.3491 24.5219 15.6084C23.6176 14.4694 22.7543 13.3007 21.9322 12.1059C21.6556 11.7039 21.4127 11.5811 20.9194 11.6257C17.16 11.9719 13.5388 11.5141 10.2577 9.49668C7.28675 7.66913 5.63125 5.0376 5.59014 1.49787C5.57893 0.667845 6.06474 0.154194 6.79346 0.154194C7.49602 0.154194 7.97436 0.638068 7.98557 1.4346C8.01547 4.17407 9.3309 6.14679 11.6367 7.52397C14.2974 9.11703 17.2086 9.4818 20.2019 9.27708L20.1907 9.27336ZM51.8919 30.9062C51.3463 30.199 50.9689 29.5812 50.4719 29.0824C46.3611 24.9583 42.2354 20.8528 38.106 16.7474C35.9087 14.5625 33.0685 14.5625 30.8599 16.7585C21.9247 25.6506 12.9932 34.5465 4.06543 43.446C1.86058 45.6421 1.85685 48.4672 4.05422 50.6595C8.15748 54.7575 12.2682 58.8481 16.3827 62.9313C16.7302 63.2774 17.1077 63.6087 17.5225 63.8618C19.518 65.0826 21.8462 64.7365 23.625 62.9648C29.5669 57.0541 35.5013 51.1359 41.4395 45.2215C44.4515 42.2215 47.4598 39.2214 50.4719 36.2251C51.2679 35.4323 51.8434 34.5279 51.9891 33.3405C51.806 33.3405 51.6677 33.3331 51.5294 33.3405C48.267 33.5713 45.169 32.9869 42.2354 31.5204C42.0224 31.4162 41.6525 31.4795 41.417 31.5948C40.3931 32.0973 39.343 32.3058 38.2069 32.101C35.8414 31.6804 34.1784 29.4956 34.3839 27.039C34.5857 24.6531 36.6897 22.7139 39.1188 22.6729C41.5366 22.632 43.6443 24.4261 43.8349 26.8045C43.9059 27.6643 43.7116 28.5464 43.6331 29.4993C46.0808 30.7276 48.7752 31.1668 51.8882 30.8876L51.8919 30.9062ZM54.108 30.3963C54.2537 30.3814 54.3247 30.3889 54.3883 30.3703C61.0962 28.3901 65.3116 21.8504 64.4371 14.7821C63.6187 8.16045 57.561 2.75595 50.7297 2.55495C44.1936 2.3614 38.2107 4.15546 32.5976 7.41603C30.7777 8.4731 28.8569 9.36641 26.9435 10.2523C26.084 10.6505 25.1311 10.8441 24.0137 11.194C25.4076 12.8726 26.7305 14.4583 28.2029 16.23C28.5729 15.7647 28.7896 15.426 29.0699 15.1468C32.3286 11.9049 36.6336 11.9049 39.8886 15.1394C43.5023 18.735 47.1123 22.3268 50.7185 25.9261C52.0601 27.2623 53.5512 28.4869 54.1043 30.3926L54.108 30.3963ZM41.148 28.2114L41.4208 27.9993C41.6151 27.0688 41.4357 26.2424 40.6659 25.6209C40.0306 25.1072 39.3168 24.9434 38.2891 25.3008C39.3131 26.3429 40.2287 27.2772 41.148 28.2114ZM39.1487 29.7598C38.3938 28.9745 37.5941 28.1444 36.8317 27.3554C36.6486 28.7586 37.8183 29.9385 39.1487 29.7598ZM25.4861 40.9745C24.9965 40.4162 24.6004 39.9696 24.1482 39.4522C22.7767 40.7698 21.4688 42.0316 20.1683 43.2785C19.3499 42.2177 18.9126 40.8703 19.1518 39.6867C19.6152 37.4013 21.4314 36.4596 23.3859 35.6743C23.072 34.8591 22.7842 34.1035 22.4852 33.3182C19.9852 34.1854 18.1054 35.6817 17.0367 38.0118C15.7922 40.7252 16.5994 43.2153 18.2886 45.6905C17.8214 46.0589 17.3618 46.42 16.8984 46.7848L18.4306 48.2178L19.2527 47.1719C19.7348 47.5887 20.1347 47.9386 20.5532 48.3034L19.4956 49.4275L20.9082 50.7525C21.125 50.5032 21.3866 50.2352 21.6108 49.9374C21.921 49.5317 22.1788 49.5652 22.6572 49.7848C23.7521 50.2947 24.8882 50.8605 26.0616 51.0242C29.0138 51.43 32.8107 48.7686 33.6253 45.8877C33.6664 45.7388 33.6253 45.5006 33.5282 45.3927C33.061 44.8716 32.5565 44.384 32.0147 43.8294C31.8764 44.1048 31.8054 44.3319 31.6671 44.5106C30.9048 45.5081 30.2471 46.6284 29.324 47.451C27.8329 48.7798 25.8149 48.6533 24.1071 47.2724C25.2693 46.2004 26.4166 45.1396 27.6199 44.0267C27.0407 43.513 26.5922 43.1185 26.1289 42.7053C24.9853 43.8108 23.8082 44.946 22.6198 46.0962C22.2498 45.7575 21.8612 45.3964 21.2931 44.8753C22.7618 43.5056 24.1594 42.1991 25.4786 40.9671L25.4861 40.9745Z" fill="#AE0C79"/>
</svg>
