<svg width="40" height="41" viewBox="0 0 40 41" fill="none" xmlns="http://www.w3.org/2000/svg">
<path d="M19.9908 0C29.5241 0 37.795 6.78159 39.5976 16.1216C39.8332 17.3419 39.8866 18.5999 39.9688 19.8447C40.0244 20.6782 39.4843 21.2606 38.7485 21.2806C38.0173 21.3006 37.4727 20.7427 37.4549 19.9069C37.3527 15.2325 35.7545 11.1537 32.4626 7.81962C28.7195 4.02761 24.1407 2.2961 18.8172 2.61617C10.942 3.08517 4.05816 9.05102 2.74452 17.3552C1.27084 26.6863 7.73681 35.6506 17.0723 37.1798C18.0103 37.3332 18.9661 37.3754 19.9174 37.4466C20.7443 37.5088 21.3 38.0334 21.2733 38.7669C21.2466 39.4959 20.6487 40.0094 19.8308 40.005C10.4219 39.9627 2.1755 33.1433 0.379522 23.919C-1.51203 14.2078 3.81366 4.69888 13.087 1.23362C15.1941 0.446772 17.6903 0 19.9908 0ZM30.2688 20.4248C24.8808 20.3848 20.462 24.7614 20.4242 30.1715C20.3864 35.5595 24.7586 39.9694 30.1776 40.0094C35.55 40.0494 39.9822 35.6395 39.9999 30.2382C40.0177 24.8747 35.6456 20.4648 30.2665 20.4248H30.2688ZM30.2154 37.451C26.2456 37.451 22.9893 34.208 22.9737 30.2382C22.9582 26.2462 26.2145 22.9787 30.2132 22.9787C34.1897 22.9787 37.446 26.215 37.4571 30.1849C37.4682 34.1725 34.203 37.451 30.2154 37.451ZM18.1304 20.4226C15.9921 20.4226 13.856 20.427 11.7177 20.4204C11.1309 20.4204 10.6419 20.5848 10.3596 21.1339C9.90843 22.0118 10.5575 22.9698 11.6177 22.9743C14.3139 22.9832 17.0101 22.9787 19.7063 22.9765C20.8199 22.9765 21.2778 22.5097 21.2778 21.3806C21.2778 18.3221 21.2778 15.2636 21.2778 12.2051C21.2778 10.298 21.2844 8.39086 21.2755 6.48375C21.2711 5.67467 20.7065 5.09675 19.973 5.11009C19.2573 5.12565 18.7416 5.69023 18.7194 6.48597C18.7149 6.61711 18.7194 6.74825 18.7194 6.88162C18.7194 11.1737 18.7194 15.4636 18.7194 19.7558V20.4248C18.4816 20.4248 18.306 20.4248 18.1281 20.4248L18.1304 20.4226ZM26.2878 29.9137C25.6121 29.4114 24.8608 29.4847 24.4052 30.076C23.9495 30.6672 24.0718 31.4318 24.7297 31.9342C25.97 32.8811 27.2169 33.8213 28.4706 34.7526C29.1707 35.2727 29.8709 35.1683 30.4044 34.4637C31.9647 32.4076 33.5184 30.3471 35.0677 28.2822C35.5789 27.602 35.5144 26.8596 34.9299 26.3995C34.3275 25.9261 33.5784 26.0595 33.0405 26.753C32.5671 27.362 32.107 27.9844 31.6424 28.6001C30.7911 29.7248 29.9376 30.8495 29.0574 32.0097C28.0949 31.2785 27.1947 30.5872 26.2856 29.9092L26.2878 29.9137Z" fill="#9B28AD"/>
</svg>
