<svg width="33" height="72" viewBox="0 0 33 72" fill="none" xmlns="http://www.w3.org/2000/svg">
<path d="M16.7185 20.9786C17.3465 20.8106 17.8586 20.7146 18.3426 20.5306C19.3747 20.1385 20.3628 20.2626 21.2549 20.8306C22.655 21.7227 23.9991 22.6907 25.3632 23.6388C25.7472 23.9068 26.1112 24.1989 26.4793 24.4869C27.1233 24.9989 27.7834 25.2549 28.6754 25.2069C30.7116 25.0989 32.3517 26.8671 32.5037 29.1273C32.6158 30.7554 32.1397 32.2435 31.5077 33.7156C30.2036 36.7399 28.9315 39.7761 27.6834 42.8203C27.5313 43.1884 27.5273 43.6884 27.6274 44.0804C28.8635 48.8088 28.2834 53.2812 25.8672 57.5335C25.6392 57.9375 25.5152 58.4456 25.4952 58.9096C25.4432 60.0737 25.4792 61.2378 25.4792 62.4619C25.7752 62.4779 26.0232 62.4819 26.2712 62.5099C26.9313 62.5819 27.3393 62.9499 27.3433 63.618C27.3633 66.0342 27.3633 68.4504 27.3433 70.8626C27.3353 71.6146 26.8833 71.9907 26.0592 71.9947C24.1631 72.0067 22.2669 71.9947 20.3708 71.9947C15.7464 71.9947 11.126 71.9947 6.50168 71.9947C5.22157 71.9947 4.91355 71.6826 4.91355 70.3745C4.91355 68.2984 4.91355 66.2182 4.91355 64.142C4.91355 62.7939 5.20157 62.5059 6.55368 62.4979C6.7577 62.4979 6.96571 62.4979 7.31374 62.4979C7.11372 60.6938 7.66177 58.9416 6.74169 57.1735C4.82954 53.4932 3.12541 49.7089 1.28126 45.9926C-0.126853 43.1564 -0.286865 40.3281 0.377187 37.1919C2.79338 25.783 4.98155 14.3181 7.24173 2.86517C7.52576 1.42905 8.27782 0.444975 9.72593 0.0969476C11.15 -0.24708 12.2541 0.348968 13.0022 1.49706C13.5142 2.28512 13.7903 3.2252 14.2103 4.07726C14.3263 4.31328 14.5343 4.5893 14.7663 4.66931C17.3505 5.58538 18.8387 8.05758 18.3866 10.8258C17.8786 13.922 17.3345 17.0143 16.8145 20.1105C16.7705 20.3586 16.7585 20.6146 16.7225 20.9786H16.7185ZM9.48991 62.4499H23.303C23.303 61.0458 23.263 59.6937 23.323 58.3496C23.347 57.8375 23.499 57.2735 23.7631 56.8335C26.1392 52.8691 26.7033 48.7008 25.3832 44.2605C25.2272 43.7404 25.2512 43.0604 25.4512 42.5603C26.7473 39.3361 28.1274 36.1478 29.4595 32.9396C29.7555 32.2235 30.1196 31.4954 30.2116 30.7434C30.3116 29.9473 30.2916 29.0632 30.0315 28.3152C29.6435 27.1911 28.4234 27.0231 27.5834 27.8752C27.2193 28.2432 26.8633 28.6432 26.6153 29.0913C25.4232 31.2434 24.1191 33.3556 23.139 35.6038C22.0749 38.048 20.5868 40.1681 18.9467 42.2163C18.7747 42.4323 18.5426 42.7043 18.3066 42.7443C17.2905 42.9123 16.2625 43.1004 15.2384 43.0884C14.2583 43.0764 13.5502 42.4963 13.2382 41.5122C13.0662 40.9682 12.8822 40.4282 12.6902 39.8921C12.3221 38.856 12.1581 37.7359 11.3341 36.8879C11.158 36.7039 11.146 36.2398 11.2261 35.9478C11.6341 34.4237 12.0861 32.9116 12.5462 31.4034C12.6342 31.1194 12.7662 30.8034 12.9782 30.6074C14.3743 29.2953 15.8064 28.0192 17.2065 26.7111C17.8666 26.091 18.1826 26.071 18.9947 26.487C19.9587 26.9831 20.9348 27.4991 21.9629 27.8032C23.491 28.2592 24.8431 27.7311 25.6592 26.499C23.9191 25.2869 22.1789 24.0709 20.4348 22.8588C19.9387 22.5147 19.4227 22.4547 18.8187 22.6467C16.3745 23.4348 13.9343 24.2269 11.4621 24.9229C10.042 25.323 9.08188 26.147 8.34182 27.3991C6.12565 31.1634 4.2455 35.0877 2.52936 39.1C1.91331 40.5362 1.8413 41.8603 2.52136 43.2724C4.73753 47.8727 6.92571 52.4891 9.10188 57.1095C9.3139 57.5615 9.44991 58.0856 9.46991 58.5816C9.52192 59.8497 9.48591 61.1178 9.48591 62.4539L9.48991 62.4499ZM7.11372 69.7665H25.1232V64.7501H7.11372V69.7665ZM4.00548 30.4634L4.09748 30.5314C4.2495 30.2633 4.39751 29.9953 4.55352 29.7273C5.78562 27.5711 6.8297 25.2829 8.77786 23.6148C8.90987 23.5028 8.94187 23.2468 8.98187 23.0508C9.3739 21.0906 9.76594 19.1345 10.142 17.1703C10.822 13.63 11.5181 10.0897 12.1461 6.54146C12.3861 5.17335 12.1861 3.82124 11.2461 2.72516C11.006 2.44113 10.482 2.20512 10.142 2.26512C9.86194 2.31312 9.52192 2.80516 9.44991 3.14919C7.61776 12.2499 5.81762 21.3586 4.00948 30.4674L4.00548 30.4634ZM18.1746 28.9272C17.2865 29.7473 16.2985 30.7434 15.2184 31.6275C13.9863 32.6355 14.3583 34.2157 13.7263 35.4278C13.6662 35.5398 13.6262 35.6718 13.6142 35.7958C13.5982 35.9398 13.5822 36.1038 13.6302 36.2398C14.1423 37.6479 14.6623 39.056 15.2024 40.4522C15.2744 40.6442 15.4504 40.8682 15.6304 40.9282C16.3385 41.1802 17.2665 40.8242 17.7746 40.2561C20.3508 37.3439 21.4109 33.5996 23.267 30.2953C23.283 30.2633 23.247 30.1993 23.235 30.1513L23.179 30.3514C21.5589 29.8913 19.9387 29.4273 18.1866 28.9312L18.1746 28.9272ZM14.3383 6.88149C13.3222 12.1339 12.3181 17.3423 11.2861 22.6707C12.2901 22.3547 13.1822 22.0947 14.0503 21.7827C14.2143 21.7227 14.3663 21.4546 14.4023 21.2586C15.0344 17.6543 15.6584 14.0541 16.2545 10.4458C16.5145 8.86164 15.7224 7.42553 14.3383 6.88149Z" fill="#9B28AD"/>
</svg>
