<svg width="40" height="41" viewBox="0 0 40 41" fill="none" xmlns="http://www.w3.org/2000/svg">
<path d="M33.5541 31.5058C33.0092 31.7482 32.4732 31.9862 31.9482 32.2175C32.0572 34.2616 31.3255 35.2736 29.4549 35.6584C29.4772 36.8083 29.0546 37.7513 28.007 38.3118C26.9638 38.8701 25.9407 38.73 24.9687 38.0472C24.4594 39.1926 23.612 39.8221 22.3797 39.8577C21.1475 39.8932 20.3891 39.0658 19.6106 38.2229C19.555 38.3096 19.5194 38.3585 19.4927 38.4119C18.563 40.2358 16.4322 40.5827 14.9665 39.1392C13.1515 37.3532 11.3388 35.5672 9.53722 33.77C8.61862 32.8536 7.72894 31.9084 6.78811 30.9364C6.63464 31.181 6.55457 31.3301 6.45448 31.4635C5.85394 32.2598 5.04656 32.5512 4.08126 32.3621C3.30724 32.2109 2.53989 32.024 1.77254 31.8327C0.51809 31.5214 -0.222569 30.3803 0.0599045 29.1148C0.916221 25.2891 1.79923 21.4724 2.67334 17.6512C2.76675 17.2464 2.82236 16.8283 2.96916 16.4435C3.10928 16.0765 3.30056 15.7095 3.55635 15.4159C3.75208 15.1913 3.82325 14.9889 3.82325 14.7086C3.8188 10.1802 3.8188 5.65169 3.8188 1.12322C3.8188 0.22242 4.03677 0.0022242 4.92645 0.0022242C12.7467 0.0066726 20.5715 0.0088968 28.3962 0C28.8299 0 29.1591 0.122331 29.466 0.433719C31.4078 2.39324 33.3606 4.34609 35.3201 6.28781C35.6293 6.59475 35.7561 6.92616 35.7539 7.35765C35.7405 9.74199 35.7516 12.1263 35.7427 14.5129C35.7427 14.7754 35.7894 14.9422 36.0452 15.0867C36.6524 15.4293 36.9594 16.0009 37.1106 16.6681C37.8402 19.8777 38.5741 23.085 39.3059 26.2923C39.5239 27.2442 39.7552 28.194 39.9509 29.1504C40.2 30.3714 39.4794 31.5169 38.2761 31.8238C37.4865 32.024 36.688 32.202 35.8895 32.371C35.0265 32.5534 34.3015 32.282 33.5519 31.5036L33.5541 31.5058ZM9.75074 17.1842C9.84193 17.1908 9.90643 17.1975 9.97316 17.1975C12.3842 17.1975 14.7974 17.202 17.2085 17.1886C17.3708 17.1886 17.5443 17.073 17.6956 16.9818C18.2605 16.6326 18.7854 16.1877 19.3882 15.9342C20.7494 15.3581 22.0773 15.6561 23.325 16.3278C24.5973 17.0129 25.8606 17.718 27.095 18.4675C28.2427 19.1637 29.2837 18.8879 30.329 18.2785C29.9554 16.6726 30.8584 15.4626 32.4198 15.2113C32.8691 15.1401 33.305 14.9956 33.7521 14.9222C34.0724 14.8688 34.1858 14.7464 34.1813 14.4017C34.1613 12.351 34.1725 10.3025 34.1702 8.25178C34.1702 8.12055 34.1591 7.99155 34.1502 7.81806C33.9789 7.81806 33.8344 7.81806 33.6898 7.81806C32.1084 7.81806 30.527 7.81806 28.9478 7.81806C28.1805 7.81806 27.9313 7.5734 27.9291 6.81495C27.9269 5.23354 27.9291 3.65214 27.9291 2.07295C27.9291 1.91726 27.9158 1.76379 27.9091 1.5992H5.39131V14.7198C6.18535 14.9044 6.9616 15.1068 7.74674 15.2602C8.82325 15.4715 9.48161 16.0965 9.75074 17.1864V17.1842ZM9.55946 18.7678C9.5261 18.8968 9.48829 19.0236 9.45937 19.1504C8.71871 22.371 7.9825 25.5916 7.23295 28.8078C7.16622 29.097 7.20626 29.2883 7.4309 29.5085C10.269 32.2976 13.0959 35.0979 15.9251 37.8937C16.5968 38.5565 17.3041 38.6388 17.8224 38.1161C18.3428 37.5934 18.2561 36.8883 17.591 36.2211C16.9282 35.5583 16.2587 34.8999 15.6048 34.2282C15.2623 33.8768 15.2645 33.4319 15.5759 33.1139C15.8806 32.8003 16.3299 32.8003 16.6925 33.1161C16.8037 33.214 16.9038 33.3207 17.0083 33.4253C18.4385 34.8554 19.8686 36.2878 21.2988 37.7157C21.4211 37.8381 21.5412 37.9693 21.6836 38.0672C22.0817 38.343 22.511 38.3697 22.9358 38.1383C23.3473 37.9137 23.5964 37.54 23.5208 37.0841C23.4674 36.7638 23.305 36.4124 23.0804 36.181C21.737 34.7954 20.3624 33.4431 18.999 32.0774C18.8944 31.9729 18.7854 31.8706 18.7054 31.7504C18.4852 31.4257 18.5341 31.0254 18.8077 30.7607C19.079 30.5004 19.4883 30.4693 19.7997 30.6962C19.9176 30.7829 20.0199 30.8897 20.1244 30.9942C21.9527 32.8225 23.781 34.6508 25.6093 36.4791C25.7316 36.6014 25.8539 36.7282 25.9918 36.8327C26.4634 37.1931 27.1195 37.1486 27.531 36.7371C27.9469 36.3212 27.9958 35.6739 27.6355 35.198C27.5399 35.0712 27.422 34.9577 27.3086 34.8443C25.5381 33.0716 23.7654 31.3012 21.995 29.5285C21.8993 29.4328 21.7992 29.3439 21.7169 29.2393C21.4478 28.9012 21.4678 28.4742 21.7614 28.1828C22.0461 27.9004 22.4887 27.8848 22.8201 28.1517C22.9247 28.2362 23.0159 28.3341 23.1093 28.4297C24.833 30.1535 26.559 31.8772 28.2805 33.6032C28.6008 33.9235 28.9567 34.137 29.4238 34.0592C29.882 33.9813 30.2112 33.7211 30.3579 33.274C30.5203 32.7803 30.3757 32.3554 30.0132 31.9929C27.6822 29.6641 25.3535 27.331 23.0203 25.0022C21.9505 23.9346 20.8072 23.8501 19.5439 24.6708C18.7721 25.1735 17.987 25.6739 17.1507 26.052C14.9665 27.0351 12.987 26.5614 11.519 24.7865C11.1453 24.335 11.1498 23.9324 11.5835 23.5565C13.1515 22.1975 14.4282 20.5738 15.7761 19.0125C15.8317 18.948 15.8695 18.8679 15.9362 18.7633H9.55946V18.7678ZM30.7094 19.8643C30.5203 19.9422 30.3735 19.9978 30.2312 20.0623C28.9122 20.6561 27.6311 20.5783 26.3855 19.8532C25.8539 19.544 25.3268 19.2238 24.7841 18.9324C23.8321 18.4186 22.8913 17.8737 21.9038 17.4333C20.8517 16.9617 19.8508 17.202 18.9878 17.9426C18.5519 18.3163 18.1337 18.7166 17.7512 19.1459C16.241 20.8474 14.7463 22.5667 13.2361 24.2905C13.245 24.2994 13.2983 24.3594 13.3606 24.4061C14.3081 25.1579 15.3491 25.1757 16.3833 24.6775C17.2463 24.2616 18.0692 23.75 18.8833 23.2407C20.5114 22.2198 22.4754 22.371 23.89 23.6744C24.3237 24.0747 24.7307 24.5018 25.1467 24.9177C27.0506 26.8216 28.9545 28.7278 30.8628 30.6272C30.954 30.7184 31.1297 30.8452 31.2076 30.8118C31.8237 30.5672 32.4242 30.2869 33.0359 30.0178C32.2552 26.6103 31.4856 23.2496 30.7094 19.8621V19.8643ZM38.4362 29.544C38.4207 29.4573 38.3984 29.3261 38.3695 29.1948C37.4442 25.1535 36.519 21.1121 35.5959 17.0707C35.4402 16.3923 35.14 16.1966 34.4705 16.3501C33.8321 16.4969 33.1938 16.6459 32.5555 16.7949C31.8949 16.9484 31.7169 17.2353 31.866 17.8981C32.4709 20.5449 33.0737 23.1917 33.6787 25.8385C34.0101 27.2865 34.3415 28.7322 34.6796 30.1779C34.7952 30.6739 35.1044 30.9364 35.5181 30.8519C36.3299 30.6851 37.1395 30.4982 37.9425 30.2914C38.2739 30.2069 38.434 29.9399 38.4362 29.5463V29.544ZM8.18935 17.6624C8.20047 17.1708 7.98473 16.915 7.52432 16.8105C6.85928 16.6593 6.19202 16.5169 5.52699 16.3701C4.82859 16.2144 4.56836 16.3812 4.40821 17.0774C4.10127 18.4208 3.79433 19.762 3.4874 21.1054C2.8624 23.8301 2.23517 26.5525 1.6124 29.2771C1.47005 29.8999 1.668 30.2091 2.29745 30.3581C2.92245 30.5071 3.54745 30.6472 4.17467 30.7874C4.92423 30.9542 5.19558 30.7762 5.36684 30.0178C6.13642 26.6548 6.90821 23.2918 7.67779 19.9288C7.85572 19.1481 8.03144 18.3652 8.19158 17.6624H8.18935ZM32.8668 6.24333C31.7525 5.13568 30.6026 3.99244 29.515 2.9137V6.24333H32.8668ZM11.9571 5.11121C10.954 5.55383 10.2823 6.27669 10.1934 7.40213C10.0688 8.98799 11.3232 10.2802 13.0092 10.3737C13.2961 10.3892 13.5986 10.4382 13.8611 10.5494C14.2792 10.7273 14.5506 11.0543 14.555 11.5414C14.5595 12.0262 14.2948 12.3488 13.8833 12.5489C13.6965 12.6401 13.4807 12.6868 13.2716 12.718C12.66 12.8114 12.2418 12.4577 11.817 12.0907C11.4723 11.7927 11.0185 11.8394 10.7361 12.1508C10.4469 12.4689 10.4336 12.9337 10.7805 13.2273C11.1631 13.552 11.5835 13.8501 12.0283 14.0792C12.2774 14.2082 12.3886 14.3105 12.3953 14.5952C12.4087 15.1112 12.7401 15.4382 13.1782 15.4359C13.632 15.4337 13.9612 15.0778 13.9523 14.5485C13.9478 14.2949 14.0168 14.1793 14.2614 14.0859C15.5225 13.6077 16.2854 12.4244 16.1097 11.2567C15.914 9.94217 14.8486 8.95685 13.4918 8.83452C13.2516 8.81228 13.0092 8.8056 12.7734 8.7589C12.1818 8.63879 11.7392 8.15391 11.7303 7.64235C11.7214 7.13523 12.1173 6.67037 12.7067 6.5169C13.4118 6.3323 13.9923 6.58585 14.495 7.06628C14.8375 7.39324 15.289 7.43995 15.6093 7.1597C15.9407 6.87055 16.0052 6.39012 15.6604 6.05427C15.3246 5.72509 14.9242 5.42927 14.4972 5.23354C14.0991 5.04893 13.841 4.90214 13.8766 4.39502C13.9078 3.97687 13.5297 3.6855 13.1137 3.68772C12.6978 3.68995 12.382 3.98354 12.3531 4.41059C12.3419 4.58407 12.3531 4.75756 12.3531 4.96441C12.204 5.02224 12.0773 5.0645 11.9549 5.11788L11.9571 5.11121ZM25.1044 7.16192C25.6426 7.1597 25.9941 6.85943 26.0074 6.40347C26.0208 5.93416 25.6649 5.61388 25.0999 5.61165C23.2672 5.60721 21.4345 5.60721 19.6039 5.61165C19.0479 5.61165 18.7187 5.9008 18.712 6.36788C18.7031 6.85721 19.0368 7.15747 19.6106 7.16192C20.5203 7.16637 21.43 7.16192 22.3397 7.16192C23.2628 7.16192 24.1858 7.16415 25.1088 7.16192H25.1044ZM25.1044 10.2135C25.6404 10.2113 25.9941 9.90658 26.0096 9.45285C26.023 8.98354 25.6693 8.66103 25.1044 8.65881C23.2716 8.65436 21.4389 8.65436 19.6084 8.65881C19.0501 8.65881 18.7232 8.94795 18.7143 9.41504C18.7054 9.90436 19.039 10.2091 19.6106 10.2135C20.5203 10.218 21.43 10.2135 22.3397 10.2135C23.2628 10.2135 24.1858 10.2157 25.1088 10.2135H25.1044ZM19.6885 11.7104C19.4816 11.7126 19.2503 11.7415 19.0746 11.8372C18.741 12.0173 18.6498 12.3421 18.7387 12.7024C18.8233 13.0516 19.1346 13.2629 19.5661 13.2629C21.3989 13.2673 23.2316 13.2651 25.0621 13.2629C25.6293 13.2629 25.9941 12.9671 26.0096 12.5022C26.0252 12.0218 25.6627 11.7082 25.0644 11.706C24.168 11.7015 23.2717 11.706 22.3753 11.706C21.4789 11.706 20.5826 11.6993 19.6862 11.7104H19.6885Z" fill="#AE0C79"/>
</svg>
