<svg width="40" height="41" viewBox="0 0 40 41" fill="none" xmlns="http://www.w3.org/2000/svg">
<path d="M19.5861 15.6473C20.0666 16.1255 20.5046 16.5591 20.9739 17.0262C14.7791 23.2188 8.59093 29.4047 2.44078 35.5504C3.21178 36.3236 3.92692 37.0387 4.72027 37.8298C10.8548 31.6216 17.0228 25.3776 23.1707 19.1559C23.7272 19.737 24.163 20.1906 24.6457 20.6912C24.592 20.7471 24.4512 20.9058 24.2993 21.0577C18.1178 27.2414 11.9364 33.4228 5.75274 39.6043C4.91916 40.4379 4.42304 40.4356 3.58276 39.5953C2.55029 38.5629 1.51334 37.5326 0.485337 36.4957C-0.151579 35.8543 -0.162753 35.3738 0.458519 34.7525C6.75169 28.4549 13.0471 22.1595 19.3447 15.8663C19.414 15.797 19.4922 15.7345 19.5861 15.6495V15.6473ZM31.2204 14.0539C31.6875 13.5801 31.6428 13.0885 31.1467 12.5745C30.0494 11.4392 28.9409 10.3151 27.8325 9.18875C27.1285 8.47361 26.6704 8.47138 25.9597 9.17981C24.2769 10.8604 22.5941 12.5409 20.9136 14.226C20.7929 14.3466 20.6901 14.4807 20.5672 14.6238C22.2947 16.282 23.9775 17.9022 25.705 19.5604C27.5777 17.6944 29.4125 15.8864 31.2227 14.0539H31.2204ZM23.6288 14.6528C24.6926 13.5913 25.8145 12.4717 26.905 11.3811C27.5129 11.9934 28.2213 12.7108 28.8828 13.3812C27.8347 14.4271 26.724 15.5378 25.5843 16.6731C24.9518 16.0205 24.2591 15.3054 23.6266 14.6528H23.6288ZM34.5458 6.5137C34.4408 7.19978 34.7559 7.70485 35.319 7.792C35.9291 7.8881 36.423 7.52159 36.5638 6.85339C36.6733 6.33268 36.7649 5.80751 36.8633 5.28904C36.946 5.29351 36.9907 5.2801 37.0197 5.29797C37.4577 5.57509 37.8935 5.86114 38.3338 6.13602C38.9819 6.54052 39.4154 6.47348 39.7752 5.92148C40.1551 5.3382 40.059 4.87336 39.4445 4.43758C38.9796 4.10683 38.4969 3.79843 38.0388 3.49226C38.0611 3.41404 38.0611 3.38723 38.0723 3.37829C38.4053 3.12352 38.7405 2.87099 39.0713 2.61622C39.6769 2.15139 39.7998 1.58822 39.4087 1.07198C39.0377 0.582563 38.5014 0.549041 37.8734 0.99153C37.4399 1.2977 37.013 1.61504 36.5437 1.95249C36.3381 1.51 36.1727 1.14797 36.0051 0.788164C35.6744 0.0819691 35.1201 -0.168328 34.5212 0.113256C33.9983 0.359083 33.8508 0.928955 34.1391 1.61504C34.2977 1.99048 34.4609 2.36146 34.633 2.76149C34.3894 2.81289 34.2352 2.84864 34.0787 2.87993C33.7457 2.94474 33.4105 3.00508 33.0775 3.06989C32.3512 3.20844 32.0272 3.57942 32.1009 4.18728C32.1747 4.7795 32.6797 5.11472 33.3949 5.02533C33.8463 4.96946 34.2933 4.89124 34.843 4.80856C34.7268 5.45441 34.6218 5.98182 34.5391 6.5137H34.5458ZM21.4075 6.6612C21.6957 7.09251 21.984 7.52383 22.2746 7.95514C22.6589 8.52501 23.2847 8.71497 23.7562 8.40881C24.268 8.07806 24.3484 7.49925 23.9529 6.88468C23.6423 6.40196 23.3182 5.92595 22.9673 5.39854C23.5037 5.2801 23.9685 5.1907 24.4267 5.07226C25.0323 4.91359 25.372 4.39959 25.2468 3.86994C25.1083 3.29337 24.5876 2.98943 23.9507 3.12576C23.4121 3.23973 22.8757 3.36264 22.355 3.47885C22.3148 3.40287 22.2991 3.38499 22.2969 3.36711C22.2902 2.96709 22.2902 2.56706 22.2813 2.16927C22.2656 1.50106 21.8701 1.04516 21.3002 1.02952C20.7124 1.01388 20.2811 1.48095 20.261 2.1782C20.2476 2.59388 20.2588 3.00955 20.2588 3.49003C19.6889 3.36711 19.1883 3.25761 18.6855 3.15034C17.9659 2.9939 17.4742 3.24643 17.3245 3.84759C17.1792 4.42864 17.5212 4.89124 18.2497 5.07226C18.7078 5.18623 19.1727 5.27563 19.7157 5.39407C19.3403 5.96841 18.9939 6.47348 18.6721 6.99418C18.3614 7.49478 18.4397 8.01325 18.8419 8.33729C19.3023 8.70827 19.9504 8.59206 20.3571 8.0356C20.6946 7.57299 20.994 7.08357 21.3069 6.61203C21.3762 6.64779 21.3985 6.65226 21.4075 6.66567V6.6612ZM37.0465 15.2875C37.2097 14.9456 37.3818 14.6059 37.5427 14.264C37.8511 13.6114 37.7103 13.0549 37.1694 12.7756C36.6443 12.5052 36.1057 12.7398 35.7593 13.3946C35.5693 13.7544 35.3861 14.1187 35.1827 14.5187C34.7112 14.1209 34.3111 13.7611 33.8865 13.4282C33.3725 13.0259 32.8116 13.0706 32.4496 13.5175C32.0719 13.9824 32.1479 14.5634 32.644 14.9925C33.0016 15.3009 33.3614 15.6048 33.7614 15.9468C33.1893 16.2708 32.682 16.5479 32.1859 16.8429C31.6339 17.1714 31.4394 17.7279 31.692 18.2084C31.9691 18.7335 32.53 18.8855 33.1267 18.5816C33.6161 18.3335 34.0988 18.0676 34.6419 17.7793C34.7201 18.3983 34.776 18.9324 34.8542 19.4621C34.9637 20.2018 35.3839 20.5728 35.9917 20.4856C36.5593 20.4052 36.8521 19.9493 36.7895 19.223C36.7426 18.6732 36.68 18.1257 36.6175 17.5089C37.1493 17.6385 37.5941 17.7458 38.0365 17.8553C38.7785 18.0408 39.1763 17.8553 39.3484 17.2362C39.5406 16.5546 39.2791 16.1211 38.5349 15.9043C38.0388 15.759 37.5404 15.6294 37.022 15.4864C37.0354 15.3635 37.0287 15.321 37.0443 15.2875H37.0465Z" fill="#9B28AD"/>
</svg>
